<?xml version="1.0" encoding="UTF-8"?>
<svg width="128px" height="128px" viewBox="0 0 128 128" version="1.1" xmlns="http://www.w3.org/2000/svg" xmlns:xlink="http://www.w3.org/1999/xlink">
    <title>logo-ivanbogar_gg copy</title>
    <g id="Page-1" stroke="none" stroke-width="1" fill="none" fill-rule="evenodd">
        <g id="Desktop" transform="translate(-80.000000, -585.000000)">
            <g id="logo-ivanbogar_gg-copy" transform="translate(80.000000, 585.000000)">
                <rect id="Rectangle" x="0" y="0" width="128" height="128" rx="12"></rect>
                <g id="Group-3" transform="translate(10.000000, 5.000000)" fill-rule="nonzero">
                    <polygon id="Path" fill="#C4C4C4" points="29.6016809 34.9887574 29.6016809 18.8648357 81.4935617 44.4212255 71.7397319 49.2178 84.9866128 55.7489745 107.957447 44.4212255 17.7610085 0 17.7610085 29.1572979 11.8406974 26.2416936 11.8406974 19.7249804 0 13.8934957 0 33.4434596 51.8918809 59 35.522017 67.0619106 35.522017 80.0953872 65.1236979 65.5166128 81.4935617 73.5787745 29.6016809 99.1350638 29.6016809 54.5388468 17.7610085 48.7073872 17.7610085 75.8092255 11.8406974 78.7250809 11.8406974 45.791783 0 39.9603234 0 97.589766 17.7610085 88.8427021 17.7610085 118 107.957447 73.5787745"></polygon>
                    <polygon id="Path" fill="#A9A6A6" points="17.7610085 29.1572979 29.6016809 34.9887574 29.6016809 28.4721447 17.7610085 22.6406851"></polygon>
                    <polygon id="Path" fill="#A9A6A6" points="45.2758468 62.2655872 58.5076638 68.7822 65.1236979 65.5166128 51.8916298 59"></polygon>
                    <polygon id="Path" fill="#A9A6A6" points="11.8406472 91.7583064 17.7610085 88.8424511 17.7610085 75.8092255 11.8406472 78.7248298"></polygon>
                </g>
            </g>
        </g>
    </g>
</svg>