<svg xmlns="http://www.w3.org/2000/svg" viewBox="0 0 128 128">
    <style>
        #main-color{
            fill: #182028;
        }
        #shadow{
            fill: #000000;
        }
        @media (prefers-color-scheme: dark) {
        /* dark theme styles */
            #main-color{
                fill: #C4C4C4;
            }
            #shadow{
                fill: #A9A6A6;
            }
        }
    </style>
        <g id="logo" transform="translate(20.000000, 16.000000)" fill-rule="nonzero">
            <polygon id="main-color" points="24.0827234 28.4654298 24.0827234 15.347663 66.2998468 36.1393021 58.3645277 40.0416 69.1416511 45.3550979 87.8297872 36.1393021 14.449634 0 14.449634 23.7211915 9.63310979 21.3491745 9.63310979 16.0474417 0 11.303183 0 27.2082383 42.2171234 48 28.8992681 54.5588426 28.8992681 65.1623489 52.9819915 53.3016511 66.2998468 59.8606979 24.0827234 80.6522553 24.0827234 44.3705872 14.449634 39.6263489 14.449634 61.6753021 9.63310979 64.0475234 9.63310979 37.2543319 0 32.5100936 0 79.3950638 14.449634 72.2788085 14.449634 96 87.8297872 59.8606979"></polygon>
            <polygon id="shadow" points="14.449634 23.7211915 24.0827234 28.4654298 24.0827234 23.1637787 14.449634 18.4195404"></polygon>
            <polygon id="shadow" points="36.8345872 50.6567489 47.5994553 55.9584 52.9819915 53.3016511 42.2169191 48"></polygon>
            <polygon id="shadoe" points="9.63306894 74.6508255 14.449634 72.2786043 14.449634 61.6753021 9.63306894 64.0473191"></polygon>
        </g>
</svg>