<svg width="782" height="480" viewBox="0 0 782 480" fill="none" xmlns="http://www.w3.org/2000/svg">
<path d="M70.8178 9.62598C70.0202 9.62598 69.4027 9.92676 68.9652 10.5283C68.5277 11.1253 68.309 11.9593 68.309 13.0303C68.309 15.2588 69.1452 16.373 70.8178 16.373C71.5196 16.373 72.3695 16.1976 73.3676 15.8467V17.624C72.5473 17.9658 71.6313 18.1367 70.6195 18.1367C69.1658 18.1367 68.0538 17.6969 67.2836 16.8174C66.5134 15.9333 66.1283 14.6663 66.1283 13.0166C66.1283 11.9775 66.3174 11.0684 66.6957 10.2891C67.074 9.50521 67.6163 8.90592 68.3227 8.49121C69.0336 8.07194 69.8653 7.8623 70.8178 7.8623C71.7885 7.8623 72.7637 8.09701 73.7436 8.56641L73.06 10.2891C72.6863 10.1113 72.3103 9.95638 71.932 9.82422C71.5538 9.69206 71.1824 9.62598 70.8178 9.62598ZM82.041 18H79.9561V13.5361C79.9561 12.4333 79.5459 11.8818 78.7256 11.8818C78.1423 11.8818 77.7207 12.0801 77.4609 12.4766C77.2012 12.873 77.0713 13.5156 77.0713 14.4043V18H74.9863V7.36328H77.0713V9.53027C77.0713 9.69889 77.0553 10.0954 77.0234 10.7197L76.9756 11.335H77.085C77.5498 10.5876 78.2881 10.2139 79.2998 10.2139C80.1976 10.2139 80.8789 10.4554 81.3438 10.9385C81.8086 11.4215 82.041 12.1143 82.041 13.0166V18ZM85.4986 14.165C85.4986 14.9215 85.6217 15.4935 85.8678 15.8809C86.1184 16.2682 86.524 16.4619 87.0846 16.4619C87.6406 16.4619 88.0393 16.2705 88.2809 15.8877C88.527 15.5003 88.65 14.9261 88.65 14.165C88.65 13.4085 88.527 12.8411 88.2809 12.4629C88.0348 12.0846 87.6314 11.8955 87.0709 11.8955C86.5149 11.8955 86.1139 12.0846 85.8678 12.4629C85.6217 12.8366 85.4986 13.404 85.4986 14.165ZM90.7828 14.165C90.7828 15.4092 90.4547 16.3822 89.7984 17.084C89.1422 17.7858 88.2285 18.1367 87.0572 18.1367C86.3235 18.1367 85.6764 17.9772 85.1158 17.6582C84.5553 17.3346 84.1246 16.8721 83.8238 16.2705C83.523 15.6689 83.3727 14.9671 83.3727 14.165C83.3727 12.9163 83.6985 11.9456 84.3502 11.2529C85.0019 10.5602 85.9179 10.2139 87.0982 10.2139C87.832 10.2139 88.4791 10.3734 89.0396 10.6924C89.6002 11.0114 90.0309 11.4694 90.3316 12.0664C90.6324 12.6634 90.7828 13.363 90.7828 14.165ZM93.8166 14.165C93.8166 14.9215 93.9397 15.4935 94.1857 15.8809C94.4364 16.2682 94.842 16.4619 95.4025 16.4619C95.9585 16.4619 96.3573 16.2705 96.5988 15.8877C96.8449 15.5003 96.968 14.9261 96.968 14.165C96.968 13.4085 96.8449 12.8411 96.5988 12.4629C96.3527 12.0846 95.9494 11.8955 95.3889 11.8955C94.8329 11.8955 94.4318 12.0846 94.1857 12.4629C93.9397 12.8366 93.8166 13.404 93.8166 14.165ZM99.1008 14.165C99.1008 15.4092 98.7727 16.3822 98.1164 17.084C97.4602 17.7858 96.5464 18.1367 95.3752 18.1367C94.6415 18.1367 93.9943 17.9772 93.4338 17.6582C92.8732 17.3346 92.4426 16.8721 92.1418 16.2705C91.841 15.6689 91.6906 14.9671 91.6906 14.165C91.6906 12.9163 92.0165 11.9456 92.6682 11.2529C93.3199 10.5602 94.2359 10.2139 95.4162 10.2139C96.1499 10.2139 96.7971 10.3734 97.3576 10.6924C97.9182 11.0114 98.3488 11.4694 98.6496 12.0664C98.9504 12.6634 99.1008 13.363 99.1008 14.165ZM105.805 15.7305C105.805 16.5143 105.532 17.1113 104.985 17.5215C104.443 17.9316 103.629 18.1367 102.545 18.1367C101.989 18.1367 101.515 18.098 101.123 18.0205C100.731 17.9476 100.364 17.8382 100.022 17.6924V15.9697C100.41 16.152 100.845 16.3047 101.328 16.4277C101.816 16.5508 102.244 16.6123 102.613 16.6123C103.37 16.6123 103.748 16.3936 103.748 15.9561C103.748 15.792 103.698 15.6598 103.597 15.5596C103.497 15.4548 103.324 15.3385 103.078 15.2109C102.832 15.0788 102.504 14.9261 102.094 14.7529C101.506 14.5068 101.073 14.279 100.795 14.0693C100.521 13.8597 100.321 13.6204 100.193 13.3516C100.07 13.0781 100.009 12.7432 100.009 12.3467C100.009 11.6676 100.271 11.1436 100.795 10.7744C101.323 10.4007 102.071 10.2139 103.037 10.2139C103.957 10.2139 104.853 10.4144 105.723 10.8154L105.095 12.3193C104.712 12.1553 104.354 12.0208 104.021 11.916C103.689 11.8112 103.349 11.7588 103.003 11.7588C102.387 11.7588 102.08 11.9251 102.08 12.2578C102.08 12.4447 102.178 12.6064 102.374 12.7432C102.574 12.8799 103.01 13.0827 103.679 13.3516C104.276 13.5931 104.714 13.8187 104.992 14.0283C105.27 14.238 105.475 14.4795 105.607 14.7529C105.739 15.0264 105.805 15.3522 105.805 15.7305ZM106.994 8.38184C106.994 7.7028 107.372 7.36328 108.128 7.36328C108.885 7.36328 109.263 7.7028 109.263 8.38184C109.263 8.7054 109.167 8.95833 108.976 9.14062C108.789 9.31836 108.507 9.40723 108.128 9.40723C107.372 9.40723 106.994 9.06543 106.994 8.38184ZM109.167 18H107.082V10.3574H109.167V18ZM118.066 18H115.981V13.5361C115.981 12.9847 115.883 12.5723 115.688 12.2988C115.492 12.0208 115.179 11.8818 114.751 11.8818C114.168 11.8818 113.746 12.0778 113.486 12.4697C113.227 12.8571 113.097 13.502 113.097 14.4043V18H111.012V10.3574H112.604L112.885 11.335H113.001C113.233 10.9658 113.552 10.6878 113.958 10.501C114.368 10.3096 114.833 10.2139 115.353 10.2139C116.241 10.2139 116.916 10.4554 117.376 10.9385C117.836 11.417 118.066 12.1097 118.066 13.0166V18ZM126.514 10.3574V11.417L125.318 11.7246C125.537 12.0664 125.646 12.4492 125.646 12.873C125.646 13.6934 125.359 14.3337 124.785 14.7939C124.215 15.2497 123.422 15.4775 122.406 15.4775L122.03 15.457L121.722 15.4229C121.508 15.5869 121.401 15.7692 121.401 15.9697C121.401 16.2705 121.784 16.4209 122.549 16.4209H123.848C124.687 16.4209 125.325 16.6009 125.762 16.9609C126.204 17.321 126.425 17.8496 126.425 18.5469C126.425 19.4401 126.052 20.1328 125.304 20.625C124.561 21.1172 123.493 21.3633 122.098 21.3633C121.032 21.3633 120.216 21.1764 119.651 20.8027C119.09 20.4336 118.81 19.9141 118.81 19.2441C118.81 18.7839 118.954 18.3988 119.241 18.0889C119.528 17.779 119.949 17.5579 120.505 17.4258C120.291 17.3346 120.104 17.1865 119.945 16.9814C119.785 16.7718 119.706 16.5508 119.706 16.3184C119.706 16.0267 119.79 15.7852 119.959 15.5938C120.127 15.3978 120.371 15.2064 120.69 15.0195C120.289 14.8464 119.97 14.5684 119.733 14.1855C119.501 13.8027 119.384 13.3516 119.384 12.832C119.384 11.998 119.656 11.3532 120.198 10.8975C120.74 10.4417 121.515 10.2139 122.522 10.2139C122.736 10.2139 122.989 10.2344 123.281 10.2754C123.577 10.3118 123.766 10.3392 123.848 10.3574H126.514ZM120.615 19.0801C120.615 19.3672 120.752 19.5928 121.025 19.7568C121.303 19.9209 121.69 20.0029 122.187 20.0029C122.935 20.0029 123.52 19.9004 123.944 19.6953C124.368 19.4902 124.58 19.21 124.58 18.8545C124.58 18.5674 124.454 18.3691 124.204 18.2598C123.953 18.1504 123.566 18.0957 123.042 18.0957H121.962C121.579 18.0957 121.257 18.1846 120.998 18.3623C120.742 18.5446 120.615 18.7839 120.615 19.0801ZM121.374 12.8594C121.374 13.2741 121.467 13.6022 121.654 13.8438C121.845 14.0853 122.135 14.2061 122.522 14.2061C122.914 14.2061 123.201 14.0853 123.383 13.8438C123.566 13.6022 123.657 13.2741 123.657 12.8594C123.657 11.9388 123.279 11.4785 122.522 11.4785C121.756 11.4785 121.374 11.9388 121.374 12.8594ZM70.5689 35.4756C70.9335 35.4756 71.371 35.3958 71.8814 35.2363V36.7881C71.3619 37.0205 70.7239 37.1367 69.9674 37.1367C69.1334 37.1367 68.525 36.9271 68.1422 36.5078C67.7639 36.084 67.5748 35.4505 67.5748 34.6074V30.9229H66.5768V30.041L67.7252 29.3438L68.3268 27.7305H69.6598V29.3574H71.7994V30.9229H69.6598V34.6074C69.6598 34.9036 69.7418 35.1224 69.9059 35.2637C70.0745 35.4049 70.2955 35.4756 70.5689 35.4756ZM80.1379 37H78.0529V32.5361C78.0529 31.4333 77.6428 30.8818 76.8225 30.8818C76.2391 30.8818 75.8176 31.0801 75.5578 31.4766C75.298 31.873 75.1682 32.5156 75.1682 33.4043V37H73.0832V26.3633H75.1682V28.5303C75.1682 28.6989 75.1522 29.0954 75.1203 29.7197L75.0725 30.335H75.1818C75.6467 29.5876 76.385 29.2139 77.3967 29.2139C78.2945 29.2139 78.9758 29.4554 79.4406 29.9385C79.9055 30.4215 80.1379 31.1143 80.1379 32.0166V37ZM85.0994 30.6973C84.6574 30.6973 84.311 30.8385 84.0604 31.1211C83.8097 31.3991 83.6661 31.7956 83.6297 32.3105H86.5555C86.5464 31.7956 86.4119 31.3991 86.1521 31.1211C85.8924 30.8385 85.5415 30.6973 85.0994 30.6973ZM85.3934 37.1367C84.1629 37.1367 83.2013 36.7972 82.5086 36.1182C81.8159 35.4391 81.4695 34.4775 81.4695 33.2334C81.4695 31.9528 81.7885 30.9639 82.4266 30.2666C83.0691 29.5648 83.9555 29.2139 85.0857 29.2139C86.1658 29.2139 87.0066 29.5215 87.6082 30.1367C88.2098 30.752 88.5105 31.6019 88.5105 32.6865V33.6982H83.5818C83.6046 34.2907 83.7801 34.7533 84.1082 35.0859C84.4363 35.4186 84.8966 35.585 85.4891 35.585C85.9493 35.585 86.3846 35.5371 86.7947 35.4414C87.2049 35.3457 87.6333 35.193 88.0799 34.9834V36.5967C87.7153 36.779 87.3257 36.9134 86.9109 37C86.4962 37.0911 85.9904 37.1367 85.3934 37.1367ZM96.3623 35.4756C96.7269 35.4756 97.1644 35.3958 97.6748 35.2363V36.7881C97.1553 37.0205 96.5173 37.1367 95.7607 37.1367C94.9268 37.1367 94.3184 36.9271 93.9355 36.5078C93.5573 36.084 93.3682 35.4505 93.3682 34.6074V30.9229H92.3701V30.041L93.5186 29.3438L94.1201 27.7305H95.4531V29.3574H97.5928V30.9229H95.4531V34.6074C95.4531 34.9036 95.5352 35.1224 95.6992 35.2637C95.8678 35.4049 96.0889 35.4756 96.3623 35.4756ZM100.538 33.165C100.538 33.9215 100.661 34.4935 100.907 34.8809C101.157 35.2682 101.563 35.4619 102.124 35.4619C102.68 35.4619 103.078 35.2705 103.32 34.8877C103.566 34.5003 103.689 33.9261 103.689 33.165C103.689 32.4085 103.566 31.8411 103.32 31.4629C103.074 31.0846 102.671 30.8955 102.11 30.8955C101.554 30.8955 101.153 31.0846 100.907 31.4629C100.661 31.8366 100.538 32.404 100.538 33.165ZM105.822 33.165C105.822 34.4092 105.494 35.3822 104.838 36.084C104.181 36.7858 103.268 37.1367 102.096 37.1367C101.363 37.1367 100.715 36.9772 100.155 36.6582C99.5943 36.3346 99.1637 35.8721 98.8629 35.2705C98.5621 34.6689 98.4117 33.9671 98.4117 33.165C98.4117 31.9163 98.7376 30.9456 99.3893 30.2529C100.041 29.5602 100.957 29.2139 102.137 29.2139C102.871 29.2139 103.518 29.3734 104.079 29.6924C104.639 30.0114 105.07 30.4694 105.371 31.0664C105.671 31.6634 105.822 32.363 105.822 33.165ZM111.392 37.1367C110.494 37.1367 109.79 36.8109 109.279 36.1592H109.17C109.243 36.7972 109.279 37.1663 109.279 37.2666V40.3633H107.195V29.3574H108.89L109.184 30.3486H109.279C109.767 29.5921 110.489 29.2139 111.446 29.2139C112.349 29.2139 113.055 29.5625 113.566 30.2598C114.076 30.957 114.331 31.9255 114.331 33.165C114.331 33.9808 114.21 34.6895 113.969 35.291C113.732 35.8926 113.392 36.3506 112.95 36.665C112.508 36.9795 111.989 37.1367 111.392 37.1367ZM110.777 30.8818C110.262 30.8818 109.886 31.0413 109.649 31.3604C109.412 31.6748 109.289 32.1966 109.279 32.9258V33.1514C109.279 33.9717 109.4 34.5596 109.642 34.915C109.888 35.2705 110.275 35.4482 110.804 35.4482C111.738 35.4482 112.205 34.6781 112.205 33.1377C112.205 32.3857 112.089 31.8229 111.857 31.4492C111.629 31.071 111.269 30.8818 110.777 30.8818ZM115.615 27.3818C115.615 26.7028 115.993 26.3633 116.75 26.3633C117.506 26.3633 117.885 26.7028 117.885 27.3818C117.885 27.7054 117.789 27.9583 117.597 28.1406C117.411 28.3184 117.128 28.4072 116.75 28.4072C115.993 28.4072 115.615 28.0654 115.615 27.3818ZM117.789 37H115.704V29.3574H117.789V37ZM122.737 37.1367C120.358 37.1367 119.168 35.8311 119.168 33.2197C119.168 31.9209 119.492 30.9297 120.139 30.2461C120.786 29.5579 121.714 29.2139 122.921 29.2139C123.805 29.2139 124.598 29.387 125.3 29.7334L124.685 31.3467C124.357 31.2145 124.051 31.1074 123.769 31.0254C123.486 30.9388 123.204 30.8955 122.921 30.8955C121.837 30.8955 121.294 31.6657 121.294 33.2061C121.294 34.7008 121.837 35.4482 122.921 35.4482C123.322 35.4482 123.694 35.3958 124.036 35.291C124.377 35.1816 124.719 35.013 125.061 34.7852V36.5693C124.724 36.7835 124.382 36.9316 124.036 37.0137C123.694 37.0957 123.261 37.1367 122.737 37.1367Z" fill="#182028"/>
<path d="M8.90625 303.211C10.0625 303.211 10.9531 303.607 11.5781 304.398C12.1979 305.185 12.5078 306.312 12.5078 307.781L12.5078 309.125L17 309.125L17 310.453L5.57812 310.453L5.57812 307.492C5.57812 304.638 6.6875 303.211 8.90625 303.211ZM11.3672 309.125L11.3672 307.93C11.3672 306.753 11.1771 305.901 10.7969 305.375C10.4167 304.849 9.80729 304.586 8.96875 304.586C8.21354 304.586 7.65104 304.833 7.28125 305.328C6.91146 305.823 6.72656 306.594 6.72656 307.641L6.72656 309.125L11.3672 309.125ZM12.25 299.484L17 299.484L17 300.812L5.57812 300.812L5.57812 297.68C5.57812 296.279 5.84635 295.245 6.38281 294.578C6.91927 293.906 7.72656 293.57 8.80469 293.57C10.3151 293.57 11.3359 294.336 11.8672 295.867L17 292.766L17 294.336L12.25 297.102L12.25 299.484ZM11.1094 299.484L11.1094 297.664C11.1094 296.727 10.9245 296.039 10.5547 295.602C10.1797 295.164 9.61979 294.945 8.875 294.945C8.11979 294.945 7.57552 295.169 7.24219 295.617C6.90885 296.06 6.74219 296.773 6.74219 297.758L6.74219 299.484L11.1094 299.484ZM11.2734 281.008C13.1016 281.008 14.5391 281.471 15.5859 282.398C16.6328 283.32 17.1562 284.604 17.1562 286.25C17.1562 287.932 16.6432 289.232 15.6172 290.148C14.5859 291.06 13.1328 291.516 11.2578 291.516C9.39844 291.516 7.95833 291.057 6.9375 290.141C5.91146 289.224 5.39844 287.922 5.39844 286.234C5.39844 284.594 5.91927 283.312 6.96094 282.391C8.0026 281.469 9.4401 281.008 11.2734 281.008ZM11.2734 290.109C12.8203 290.109 13.9948 289.781 14.7969 289.125C15.5937 288.464 15.9922 287.505 15.9922 286.25C15.9922 284.984 15.5937 284.029 14.7969 283.383C14 282.737 12.8255 282.414 11.2734 282.414C9.73698 282.414 8.57291 282.737 7.78125 283.383C6.98437 284.023 6.58594 284.974 6.58594 286.234C6.58594 287.5 6.98698 288.464 7.78906 289.125C8.58594 289.781 9.74739 290.109 11.2734 290.109ZM5.57812 278.453L5.57812 275.227C5.57812 273.711 5.80468 272.615 6.25781 271.937C6.71093 271.26 7.42708 270.922 8.40625 270.922C9.08333 270.922 9.64323 271.112 10.0859 271.492C10.5234 271.867 10.8073 272.417 10.9375 273.141L11.0156 273.141C11.3125 271.406 12.224 270.539 13.75 270.539C14.7708 270.539 15.5677 270.885 16.1406 271.578C16.7135 272.266 17 273.229 17 274.469L17 278.453L5.57812 278.453ZM10.4687 277.125L10.4687 274.937C10.4687 274 10.3229 273.326 10.0312 272.914C9.73437 272.503 9.23698 272.297 8.53906 272.297C7.89843 272.297 7.4375 272.526 7.15625 272.984C6.86979 273.443 6.72656 274.172 6.72656 275.172L6.72656 277.125L10.4687 277.125ZM11.5937 277.125L15.8672 277.125L15.8672 274.742C15.8672 273.82 15.6901 273.128 15.3359 272.664C14.9766 272.195 14.4167 271.961 13.6562 271.961C12.9479 271.961 12.4271 272.201 12.0937 272.68C11.7604 273.154 11.5937 273.878 11.5937 274.852L11.5937 277.125ZM17 268.078L5.57812 268.078L5.57812 266.75L15.7969 266.75L15.7969 261.711L17 261.711L17 268.078ZM17 253.398L17 259.766L5.57812 259.766L5.57812 253.398L6.75781 253.398L6.75781 258.437L10.4375 258.437L10.4375 253.703L11.6094 253.703L11.6094 258.437L15.8125 258.437L15.8125 253.398L17 253.398ZM17 245.805L6.875 249.68L6.875 249.742C7.67708 249.669 8.6302 249.633 9.73437 249.633L17 249.633L17 250.859L5.57812 250.859L5.57812 248.859L15 245.242L15 245.18L5.57812 241.531L5.57812 239.547L17 239.547L17 240.875L9.64062 240.875C8.79687 240.875 7.8802 240.839 6.89062 240.766L6.89062 240.828L17 244.734L17 245.805Z" fill="#182028"/>
<path d="M357.836 333.18C357.836 335.065 357.323 336.508 356.297 337.508C355.276 338.503 353.805 339 351.883 339H348.719V327.578H352.219C353.995 327.578 355.375 328.07 356.359 329.055C357.344 330.039 357.836 331.414 357.836 333.18ZM356.43 333.227C356.43 331.737 356.055 330.615 355.305 329.859C354.56 329.104 353.451 328.727 351.977 328.727H350.047V337.852H351.664C353.247 337.852 354.438 337.464 355.234 336.688C356.031 335.906 356.43 334.753 356.43 333.227ZM366.758 339H360.391V327.578H366.758V328.758H361.719V332.438H366.453V333.609H361.719V337.812H366.758V339ZM370.625 339H369.297V327.578H375.664V328.758H370.625V332.938H375.359V334.117H370.625V339ZM377.562 339V327.578H378.891V339H377.562ZM390.953 339H389.438L383.195 329.414H383.133C383.216 330.539 383.258 331.57 383.258 332.508V339H382.031V327.578H383.531L389.758 337.125H389.82C389.81 336.984 389.786 336.534 389.75 335.773C389.714 335.008 389.701 334.461 389.711 334.133V327.578H390.953V339ZM394.094 339V327.578H395.422V339H394.094ZM402.078 339H400.75V328.758H397.133V327.578H405.695V328.758H402.078V339ZM407.422 339V327.578H408.75V339H407.422ZM421.805 333.273C421.805 335.102 421.341 336.539 420.414 337.586C419.492 338.633 418.208 339.156 416.562 339.156C414.88 339.156 413.581 338.643 412.664 337.617C411.753 336.586 411.297 335.133 411.297 333.258C411.297 331.398 411.755 329.958 412.672 328.938C413.589 327.911 414.891 327.398 416.578 327.398C418.219 327.398 419.5 327.919 420.422 328.961C421.344 330.003 421.805 331.44 421.805 333.273ZM412.703 333.273C412.703 334.82 413.031 335.995 413.688 336.797C414.349 337.594 415.307 337.992 416.562 337.992C417.828 337.992 418.784 337.594 419.43 336.797C420.076 336 420.398 334.826 420.398 333.273C420.398 331.737 420.076 330.573 419.43 329.781C418.789 328.984 417.839 328.586 416.578 328.586C415.312 328.586 414.349 328.987 413.688 329.789C413.031 330.586 412.703 331.747 412.703 333.273ZM433.281 339H431.766L425.523 329.414H425.461C425.544 330.539 425.586 331.57 425.586 332.508V339H424.359V327.578H425.859L432.086 337.125H432.148C432.138 336.984 432.115 336.534 432.078 335.773C432.042 335.008 432.029 334.461 432.039 334.133V327.578H433.281V339Z" fill="#182028"/>
<path d="M186.578 330.418H187.551C188.203 330.418 188.676 330.297 188.969 330.055C189.262 329.812 189.408 329.453 189.408 328.977C189.408 328.492 189.25 328.145 188.934 327.934C188.617 327.723 188.141 327.617 187.504 327.617H186.578V330.418ZM186.578 331.578V335H185.178V326.434H187.598C188.703 326.434 189.521 326.641 190.053 327.055C190.584 327.469 190.85 328.094 190.85 328.93C190.85 329.996 190.295 330.756 189.186 331.209L191.605 335H190.012L187.961 331.578H186.578ZM197.699 335H192.854V326.434H197.699V327.617H194.254V329.949H197.482V331.121H194.254V333.811H197.699V335ZM204.496 332.674C204.496 333.436 204.221 334.033 203.67 334.467C203.119 334.9 202.359 335.117 201.391 335.117C200.422 335.117 199.629 334.967 199.012 334.666V333.342C199.402 333.525 199.816 333.67 200.254 333.775C200.695 333.881 201.105 333.934 201.484 333.934C202.039 333.934 202.447 333.828 202.709 333.617C202.975 333.406 203.107 333.123 203.107 332.768C203.107 332.447 202.986 332.176 202.744 331.953C202.502 331.73 202.002 331.467 201.244 331.162C200.463 330.846 199.912 330.484 199.592 330.078C199.271 329.672 199.111 329.184 199.111 328.613C199.111 327.898 199.365 327.336 199.873 326.926C200.381 326.516 201.062 326.311 201.918 326.311C202.738 326.311 203.555 326.49 204.367 326.85L203.922 327.992C203.16 327.672 202.48 327.512 201.883 327.512C201.43 327.512 201.086 327.611 200.852 327.811C200.617 328.006 200.5 328.266 200.5 328.59C200.5 328.812 200.547 329.004 200.641 329.164C200.734 329.32 200.889 329.469 201.104 329.609C201.318 329.75 201.705 329.936 202.264 330.166C202.893 330.428 203.354 330.672 203.646 330.898C203.939 331.125 204.154 331.381 204.291 331.666C204.428 331.951 204.496 332.287 204.496 332.674ZM211 335H206.154V326.434H211V327.617H207.555V329.949H210.783V331.121H207.555V333.811H211V335ZM218.172 335L217.316 332.621H214.041L213.203 335H211.727L214.932 326.398H216.455L219.66 335H218.172ZM216.947 331.414L216.145 329.082C216.086 328.926 216.004 328.68 215.898 328.344C215.797 328.008 215.727 327.762 215.688 327.605C215.582 328.086 215.428 328.611 215.225 329.182L214.451 331.414H216.947ZM222.191 330.418H223.164C223.816 330.418 224.289 330.297 224.582 330.055C224.875 329.812 225.021 329.453 225.021 328.977C225.021 328.492 224.863 328.145 224.547 327.934C224.23 327.723 223.754 327.617 223.117 327.617H222.191V330.418ZM222.191 331.578V335H220.791V326.434H223.211C224.316 326.434 225.135 326.641 225.666 327.055C226.197 327.469 226.463 328.094 226.463 328.93C226.463 329.996 225.908 330.756 224.799 331.209L227.219 335H225.625L223.574 331.578H222.191ZM232.111 327.512C231.307 327.512 230.674 327.797 230.213 328.367C229.752 328.938 229.521 329.725 229.521 330.729C229.521 331.779 229.742 332.574 230.184 333.113C230.629 333.652 231.271 333.922 232.111 333.922C232.475 333.922 232.826 333.887 233.166 333.816C233.506 333.742 233.859 333.648 234.227 333.535V334.736C233.555 334.99 232.793 335.117 231.941 335.117C230.688 335.117 229.725 334.738 229.053 333.98C228.381 333.219 228.045 332.131 228.045 330.717C228.045 329.826 228.207 329.047 228.531 328.379C228.859 327.711 229.332 327.199 229.949 326.844C230.566 326.488 231.291 326.311 232.123 326.311C232.998 326.311 233.807 326.494 234.549 326.861L234.045 328.027C233.756 327.891 233.449 327.771 233.125 327.67C232.805 327.564 232.467 327.512 232.111 327.512ZM242.828 335H241.422V331.139H237.473V335H236.072V326.434H237.473V329.938H241.422V326.434H242.828V335ZM194.359 351L193.504 348.621H190.229L189.391 351H187.914L191.119 342.398H192.643L195.848 351H194.359ZM193.135 347.414L192.332 345.082C192.273 344.926 192.191 344.68 192.086 344.344C191.984 344.008 191.914 343.762 191.875 343.605C191.77 344.086 191.615 344.611 191.412 345.182L190.639 347.414H193.135ZM204.115 351H202.398L198.186 344.174H198.139L198.168 344.555C198.223 345.281 198.25 345.945 198.25 346.547V351H196.979V342.434H198.678L202.879 349.225H202.914C202.906 349.135 202.891 348.809 202.867 348.246C202.844 347.68 202.832 347.238 202.832 346.922V342.434H204.115V351ZM211.691 351L210.836 348.621H207.561L206.723 351H205.246L208.451 342.398H209.975L213.18 351H211.691ZM210.467 347.414L209.664 345.082C209.605 344.926 209.523 344.68 209.418 344.344C209.316 344.008 209.246 343.762 209.207 343.605C209.102 344.086 208.947 344.611 208.744 345.182L207.971 347.414H210.467ZM214.311 351V342.434H215.711V349.799H219.338V351H214.311ZM223.234 346.342L225.262 342.434H226.785L223.932 347.678V351H222.525V347.725L219.684 342.434H221.207L223.234 346.342ZM232.855 348.674C232.855 349.436 232.58 350.033 232.029 350.467C231.479 350.9 230.719 351.117 229.75 351.117C228.781 351.117 227.988 350.967 227.371 350.666V349.342C227.762 349.525 228.176 349.67 228.613 349.775C229.055 349.881 229.465 349.934 229.844 349.934C230.398 349.934 230.807 349.828 231.068 349.617C231.334 349.406 231.467 349.123 231.467 348.768C231.467 348.447 231.346 348.176 231.104 347.953C230.861 347.73 230.361 347.467 229.604 347.162C228.822 346.846 228.271 346.484 227.951 346.078C227.631 345.672 227.471 345.184 227.471 344.613C227.471 343.898 227.725 343.336 228.232 342.926C228.74 342.516 229.422 342.311 230.277 342.311C231.098 342.311 231.914 342.49 232.727 342.85L232.281 343.992C231.52 343.672 230.84 343.512 230.242 343.512C229.789 343.512 229.445 343.611 229.211 343.811C228.977 344.006 228.859 344.266 228.859 344.59C228.859 344.812 228.906 345.004 229 345.164C229.094 345.32 229.248 345.469 229.463 345.609C229.678 345.75 230.064 345.936 230.623 346.166C231.252 346.428 231.713 346.672 232.006 346.898C232.299 347.125 232.514 347.381 232.65 347.666C232.787 347.951 232.855 348.287 232.855 348.674ZM239.359 351H234.514V342.434H239.359V343.617H235.914V345.949H239.143V347.121H235.914V349.811H239.359V351ZM185.23 364.674C185.23 365.436 184.955 366.033 184.404 366.467C183.854 366.9 183.094 367.117 182.125 367.117C181.156 367.117 180.363 366.967 179.746 366.666V365.342C180.137 365.525 180.551 365.67 180.988 365.775C181.43 365.881 181.84 365.934 182.219 365.934C182.773 365.934 183.182 365.828 183.443 365.617C183.709 365.406 183.842 365.123 183.842 364.768C183.842 364.447 183.721 364.176 183.479 363.953C183.236 363.73 182.736 363.467 181.979 363.162C181.197 362.846 180.646 362.484 180.326 362.078C180.006 361.672 179.846 361.184 179.846 360.613C179.846 359.898 180.1 359.336 180.607 358.926C181.115 358.516 181.797 358.311 182.652 358.311C183.473 358.311 184.289 358.49 185.102 358.85L184.656 359.992C183.895 359.672 183.215 359.512 182.617 359.512C182.164 359.512 181.82 359.611 181.586 359.811C181.352 360.006 181.234 360.266 181.234 360.59C181.234 360.812 181.281 361.004 181.375 361.164C181.469 361.32 181.623 361.469 181.838 361.609C182.053 361.75 182.439 361.936 182.998 362.166C183.627 362.428 184.088 362.672 184.381 362.898C184.674 363.125 184.889 363.381 185.025 363.666C185.162 363.951 185.23 364.287 185.23 364.674ZM189.309 362.342L191.336 358.434H192.859L190.006 363.678V367H188.6V363.725L185.758 358.434H187.281L189.309 362.342ZM201.127 367H199.41L195.197 360.174H195.15L195.18 360.555C195.234 361.281 195.262 361.945 195.262 362.547V367H193.99V358.434H195.689L199.891 365.225H199.926C199.918 365.135 199.902 364.809 199.879 364.246C199.855 363.68 199.844 363.238 199.844 362.922V358.434H201.127V367ZM206.348 367H204.947V359.635H202.428V358.434H208.867V359.635H206.348V367ZM216.941 367H215.535V363.139H211.586V367H210.186V358.434H211.586V361.938H215.535V358.434H216.941V367ZM224.043 367H219.197V358.434H224.043V359.617H220.598V361.949H223.826V363.121H220.598V365.811H224.043V367ZM228.859 367H227.459V359.635H224.939V358.434H231.379V359.635H228.859V367ZM232.697 367V358.434H234.098V367H232.697ZM241.75 367H235.621V366.027L239.939 359.635H235.738V358.434H241.633V359.418L237.297 365.799H241.75V367ZM248.113 367H243.268V358.434H248.113V359.617H244.668V361.949H247.896V363.121H244.668V365.811H248.113V367Z" fill="#182028"/>
<path d="M540.438 329.023C540.438 329.918 540.145 330.604 539.559 331.08C538.973 331.557 538.139 331.795 537.057 331.795H536.166V335H534.766V326.434H537.232C538.303 326.434 539.104 326.652 539.635 327.09C540.17 327.527 540.438 328.172 540.438 329.023ZM536.166 330.617H536.91C537.629 330.617 538.156 330.492 538.492 330.242C538.828 329.992 538.996 329.602 538.996 329.07C538.996 328.578 538.846 328.211 538.545 327.969C538.244 327.727 537.775 327.605 537.139 327.605H536.166V330.617ZM543.549 330.418H544.521C545.174 330.418 545.646 330.297 545.939 330.055C546.232 329.812 546.379 329.453 546.379 328.977C546.379 328.492 546.221 328.145 545.904 327.934C545.588 327.723 545.111 327.617 544.475 327.617H543.549V330.418ZM543.549 331.578V335H542.148V326.434H544.568C545.674 326.434 546.492 326.641 547.023 327.055C547.555 327.469 547.82 328.094 547.82 328.93C547.82 329.996 547.266 330.756 546.156 331.209L548.576 335H546.982L544.932 331.578H543.549ZM557.43 330.705C557.43 332.1 557.08 333.184 556.381 333.957C555.686 334.73 554.699 335.117 553.422 335.117C552.129 335.117 551.135 334.734 550.439 333.969C549.748 333.199 549.402 332.107 549.402 330.693C549.402 329.279 549.75 328.193 550.445 327.436C551.145 326.678 552.141 326.299 553.434 326.299C554.707 326.299 555.691 326.684 556.387 327.453C557.082 328.223 557.43 329.307 557.43 330.705ZM550.891 330.705C550.891 331.76 551.104 332.561 551.529 333.107C551.955 333.65 552.586 333.922 553.422 333.922C554.254 333.922 554.881 333.652 555.303 333.113C555.729 332.574 555.941 331.771 555.941 330.705C555.941 329.654 555.73 328.857 555.309 328.314C554.891 327.771 554.266 327.5 553.434 327.5C552.594 327.5 551.959 327.771 551.529 328.314C551.104 328.857 550.891 329.654 550.891 330.705ZM562.229 335H560.828V327.635H558.309V326.434H564.748V327.635H562.229V335ZM573.672 330.705C573.672 332.1 573.322 333.184 572.623 333.957C571.928 334.73 570.941 335.117 569.664 335.117C568.371 335.117 567.377 334.734 566.682 333.969C565.99 333.199 565.645 332.107 565.645 330.693C565.645 329.279 565.992 328.193 566.688 327.436C567.387 326.678 568.383 326.299 569.676 326.299C570.949 326.299 571.934 326.684 572.629 327.453C573.324 328.223 573.672 329.307 573.672 330.705ZM567.133 330.705C567.133 331.76 567.346 332.561 567.771 333.107C568.197 333.65 568.828 333.922 569.664 333.922C570.496 333.922 571.123 333.652 571.545 333.113C571.971 332.574 572.184 331.771 572.184 330.705C572.184 329.654 571.973 328.857 571.551 328.314C571.133 327.771 570.508 327.5 569.676 327.5C568.836 327.5 568.201 327.771 567.771 328.314C567.346 328.857 567.133 329.654 567.133 330.705ZM578.471 335H577.07V327.635H574.551V326.434H580.99V327.635H578.471V335ZM584.729 330.342L586.756 326.434H588.279L585.426 331.678V335H584.02V331.725L581.178 326.434H582.701L584.729 330.342ZM595.082 329.023C595.082 329.918 594.789 330.604 594.203 331.08C593.617 331.557 592.783 331.795 591.701 331.795H590.811V335H589.41V326.434H591.877C592.947 326.434 593.748 326.652 594.279 327.09C594.814 327.527 595.082 328.172 595.082 329.023ZM590.811 330.617H591.555C592.273 330.617 592.801 330.492 593.137 330.242C593.473 329.992 593.641 329.602 593.641 329.07C593.641 328.578 593.49 328.211 593.189 327.969C592.889 327.727 592.42 327.605 591.783 327.605H590.811V330.617ZM601.639 335H596.793V326.434H601.639V327.617H598.193V329.949H601.422V331.121H598.193V333.811H601.639V335ZM558.643 351H557.242V343.635H554.723V342.434H561.162V343.635H558.643V351ZM567.326 351H562.48V342.434H567.326V343.617H563.881V345.949H567.109V347.121H563.881V349.811H567.326V351ZM574.123 348.674C574.123 349.436 573.848 350.033 573.297 350.467C572.746 350.9 571.986 351.117 571.018 351.117C570.049 351.117 569.256 350.967 568.639 350.666V349.342C569.029 349.525 569.443 349.67 569.881 349.775C570.322 349.881 570.732 349.934 571.111 349.934C571.666 349.934 572.074 349.828 572.336 349.617C572.602 349.406 572.734 349.123 572.734 348.768C572.734 348.447 572.613 348.176 572.371 347.953C572.129 347.73 571.629 347.467 570.871 347.162C570.09 346.846 569.539 346.484 569.219 346.078C568.898 345.672 568.738 345.184 568.738 344.613C568.738 343.898 568.992 343.336 569.5 342.926C570.008 342.516 570.689 342.311 571.545 342.311C572.365 342.311 573.182 342.49 573.994 342.85L573.549 343.992C572.787 343.672 572.107 343.512 571.51 343.512C571.057 343.512 570.713 343.611 570.479 343.811C570.244 344.006 570.127 344.266 570.127 344.59C570.127 344.812 570.174 345.004 570.268 345.164C570.361 345.32 570.516 345.469 570.73 345.609C570.945 345.75 571.332 345.936 571.891 346.166C572.52 346.428 572.98 346.672 573.273 346.898C573.566 347.125 573.781 347.381 573.918 347.666C574.055 347.951 574.123 348.287 574.123 348.674ZM578.74 351H577.34V343.635H574.82V342.434H581.26V343.635H578.74V351ZM550.264 362.418H551.236C551.889 362.418 552.361 362.297 552.654 362.055C552.947 361.812 553.094 361.453 553.094 360.977C553.094 360.492 552.936 360.145 552.619 359.934C552.303 359.723 551.826 359.617 551.189 359.617H550.264V362.418ZM550.264 363.578V367H548.863V358.434H551.283C552.389 358.434 553.207 358.641 553.738 359.055C554.27 359.469 554.535 360.094 554.535 360.93C554.535 361.996 553.98 362.756 552.871 363.209L555.291 367H553.697L551.646 363.578H550.264ZM561.385 367H556.539V358.434H561.385V359.617H557.939V361.949H561.168V363.121H557.939V365.811H561.385V367ZM564.631 367H563.242V358.434H568.076V359.617H564.631V362.295H567.859V363.484H564.631V367ZM569.629 367V358.434H571.029V367H569.629ZM580.434 367H578.717L574.504 360.174H574.457L574.486 360.555C574.541 361.281 574.568 361.945 574.568 362.547V367H573.297V358.434H574.996L579.197 365.225H579.232C579.225 365.135 579.209 364.809 579.186 364.246C579.162 363.68 579.15 363.238 579.15 362.922V358.434H580.434V367ZM587.541 367H582.695V358.434H587.541V359.617H584.096V361.949H587.324V363.121H584.096V365.811H587.541V367Z" fill="#182028"/>
<path d="M773.961 306.523C774.966 306.523 775.75 306.888 776.312 307.617C776.875 308.346 777.156 309.336 777.156 310.586C777.156 311.94 776.982 312.982 776.633 313.711L775.352 313.711C775.549 313.242 775.706 312.732 775.82 312.18C775.935 311.628 775.992 311.081 775.992 310.539C775.992 309.654 775.826 308.987 775.492 308.539C775.154 308.091 774.685 307.867 774.086 307.867C773.69 307.867 773.367 307.948 773.117 308.109C772.862 308.266 772.628 308.531 772.414 308.906C772.201 309.276 771.958 309.841 771.687 310.602C771.307 311.664 770.857 312.424 770.336 312.883C769.815 313.336 769.135 313.562 768.297 313.562C767.417 313.562 766.716 313.232 766.195 312.57C765.674 311.909 765.414 311.034 765.414 309.945C765.414 308.81 765.622 307.766 766.039 306.812L767.195 307.227C766.799 308.169 766.602 309.086 766.602 309.977C766.602 310.68 766.753 311.229 767.055 311.625C767.357 312.021 767.776 312.219 768.312 312.219C768.708 312.219 769.034 312.146 769.289 312C769.539 311.854 769.771 311.609 769.984 311.266C770.193 310.917 770.424 310.385 770.68 309.672C771.107 308.474 771.565 307.651 772.055 307.203C772.544 306.75 773.18 306.523 773.961 306.523ZM771.273 294.273C773.102 294.273 774.539 294.737 775.586 295.664C776.633 296.586 777.156 297.87 777.156 299.516C777.156 301.198 776.643 302.497 775.617 303.414C774.586 304.326 773.133 304.781 771.258 304.781C769.398 304.781 767.958 304.323 766.937 303.406C765.911 302.49 765.398 301.187 765.398 299.5C765.398 297.859 765.919 296.578 766.961 295.656C768.003 294.734 769.44 294.273 771.273 294.273ZM771.273 303.375C772.82 303.375 773.995 303.047 774.797 302.391C775.594 301.729 775.992 300.771 775.992 299.516C775.992 298.25 775.594 297.294 774.797 296.648C774 296.003 772.826 295.68 771.273 295.68C769.737 295.68 768.573 296.003 767.781 296.648C766.984 297.289 766.586 298.24 766.586 299.5C766.586 300.766 766.987 301.729 767.789 302.391C768.586 303.047 769.747 303.375 771.273 303.375ZM777 291.719L765.578 291.719L765.578 290.391L775.797 290.391L775.797 285.352L777 285.352L777 291.719ZM765.578 274.781L772.969 274.781C774.271 274.781 775.294 275.174 776.039 275.961C776.784 276.747 777.156 277.828 777.156 279.203C777.156 280.578 776.781 281.643 776.031 282.398C775.281 283.148 774.25 283.523 772.937 283.523L765.578 283.523L765.578 282.195L773.031 282.195C773.984 282.195 774.716 281.935 775.227 281.414C775.737 280.893 775.992 280.128 775.992 279.117C775.992 278.154 775.737 277.411 775.227 276.891C774.711 276.37 773.974 276.109 773.016 276.109L765.578 276.109L765.578 274.781ZM777 268.234L777 269.562L766.758 269.562L766.758 273.18L765.578 273.18L765.578 264.617L766.758 264.617L766.758 268.234L777 268.234ZM777 262.891L765.578 262.891L765.578 261.562L777 261.562L777 262.891ZM771.273 248.508C773.102 248.508 774.539 248.971 775.586 249.898C776.633 250.82 777.156 252.104 777.156 253.75C777.156 255.432 776.643 256.732 775.617 257.648C774.586 258.56 773.133 259.016 771.258 259.016C769.398 259.016 767.958 258.557 766.937 257.641C765.911 256.724 765.398 255.422 765.398 253.734C765.398 252.094 765.919 250.812 766.961 249.891C768.003 248.969 769.44 248.508 771.273 248.508ZM771.273 257.609C772.82 257.609 773.995 257.281 774.797 256.625C775.594 255.964 775.992 255.005 775.992 253.75C775.992 252.484 775.594 251.529 774.797 250.883C774 250.237 772.826 249.914 771.273 249.914C769.737 249.914 768.573 250.237 767.781 250.883C766.984 251.523 766.586 252.474 766.586 253.734C766.586 255 766.987 255.964 767.789 256.625C768.586 257.281 769.747 257.609 771.273 257.609ZM777 237.031L777 238.547L767.414 244.789L767.414 244.852C768.539 244.768 769.57 244.727 770.508 244.727L777 244.727L777 245.953L765.578 245.953L765.578 244.453L775.125 238.227L775.125 238.164C774.984 238.174 774.534 238.198 773.773 238.234C773.008 238.271 772.461 238.284 772.133 238.273L765.578 238.273L765.578 237.031L777 237.031Z" fill="#182028"/>
<path d="M94.0586 126.303C94.0586 128.447 93.4668 130.1 92.2832 131.26C91.1055 132.42 89.4473 133 87.3086 133H83.1514V120.15H87.5986C89.6611 120.15 91.252 120.678 92.3711 121.732C93.4961 122.787 94.0586 124.311 94.0586 126.303ZM90.4551 126.426C90.4551 125.248 90.2207 124.375 89.752 123.807C89.2891 123.238 88.583 122.954 87.6338 122.954H86.623V130.152H87.3965C88.4512 130.152 89.2246 129.848 89.7168 129.238C90.209 128.623 90.4551 127.686 90.4551 126.426ZM96.3701 133V120.15H99.8594V133H96.3701ZM111.048 129.098C111.048 129.895 110.846 130.604 110.441 131.225C110.037 131.84 109.454 132.32 108.692 132.666C107.931 133.006 107.037 133.176 106.012 133.176C105.156 133.176 104.438 133.117 103.858 133C103.278 132.877 102.675 132.666 102.048 132.367V129.273C102.71 129.613 103.398 129.88 104.113 130.073C104.828 130.261 105.484 130.354 106.082 130.354C106.598 130.354 106.976 130.267 107.216 130.091C107.456 129.909 107.576 129.678 107.576 129.396C107.576 129.221 107.526 129.068 107.427 128.939C107.333 128.805 107.178 128.67 106.961 128.535C106.75 128.4 106.182 128.125 105.256 127.709C104.418 127.328 103.788 126.959 103.366 126.602C102.95 126.244 102.64 125.834 102.435 125.371C102.235 124.908 102.136 124.36 102.136 123.728C102.136 122.544 102.566 121.621 103.428 120.959C104.289 120.297 105.473 119.966 106.979 119.966C108.309 119.966 109.665 120.273 111.048 120.889L109.984 123.569C108.783 123.019 107.746 122.743 106.873 122.743C106.422 122.743 106.094 122.822 105.889 122.98C105.684 123.139 105.581 123.335 105.581 123.569C105.581 123.821 105.71 124.047 105.968 124.246C106.231 124.445 106.94 124.809 108.095 125.336C109.202 125.834 109.97 126.37 110.397 126.944C110.831 127.513 111.048 128.23 111.048 129.098ZM118.756 122.813C117.93 122.813 117.285 123.153 116.822 123.833C116.359 124.507 116.128 125.438 116.128 126.628C116.128 129.101 117.068 130.337 118.949 130.337C119.518 130.337 120.068 130.258 120.602 130.1C121.135 129.941 121.671 129.751 122.21 129.528V132.464C121.138 132.938 119.925 133.176 118.571 133.176C116.632 133.176 115.144 132.613 114.106 131.488C113.075 130.363 112.56 128.737 112.56 126.61C112.56 125.28 112.809 124.111 113.307 123.104C113.811 122.096 114.531 121.322 115.469 120.783C116.412 120.238 117.52 119.966 118.791 119.966C120.18 119.966 121.507 120.268 122.772 120.871L121.709 123.604C121.234 123.382 120.76 123.194 120.285 123.042C119.811 122.89 119.301 122.813 118.756 122.813ZM136.747 126.558C136.747 128.72 136.217 130.363 135.156 131.488C134.096 132.613 132.543 133.176 130.498 133.176C128.482 133.176 126.936 132.61 125.857 131.479C124.785 130.349 124.249 128.702 124.249 126.54C124.249 124.401 124.782 122.77 125.849 121.645C126.921 120.514 128.477 119.948 130.516 119.948C132.561 119.948 134.11 120.508 135.165 121.627C136.22 122.746 136.747 124.39 136.747 126.558ZM127.905 126.558C127.905 129.042 128.77 130.284 130.498 130.284C131.377 130.284 132.027 129.982 132.449 129.379C132.877 128.775 133.091 127.835 133.091 126.558C133.091 125.274 132.874 124.328 132.44 123.719C132.013 123.104 131.371 122.796 130.516 122.796C128.775 122.796 127.905 124.05 127.905 126.558ZM146.283 120.15H150.168L145.958 133H141.871L137.679 120.15H141.581L143.33 126.663C143.693 128.11 143.893 129.118 143.928 129.687C143.969 129.276 144.051 128.764 144.174 128.148C144.297 127.533 144.405 127.05 144.499 126.698L146.283 120.15ZM159.194 133H151.565V120.15H159.194V122.937H155.037V124.958H158.887V127.744H155.037V130.17H159.194V133ZM164.916 128.324V133H161.444V120.15H165.654C169.146 120.15 170.893 121.416 170.893 123.947C170.893 125.436 170.166 126.587 168.713 127.401L172.457 133H168.52L165.795 128.324H164.916ZM164.916 125.714H165.566C166.779 125.714 167.386 125.178 167.386 124.105C167.386 123.221 166.791 122.778 165.602 122.778H164.916V125.714Z" fill="#182028"/>
<path d="M281.312 126.303C281.312 128.447 280.721 130.1 279.537 131.26C278.359 132.42 276.701 133 274.562 133H270.405V120.15H274.853C276.915 120.15 278.506 120.678 279.625 121.732C280.75 122.787 281.312 124.311 281.312 126.303ZM277.709 126.426C277.709 125.248 277.475 124.375 277.006 123.807C276.543 123.238 275.837 122.954 274.888 122.954H273.877V130.152H274.65C275.705 130.152 276.479 129.848 276.971 129.238C277.463 128.623 277.709 127.686 277.709 126.426ZM291.253 133H283.624V120.15H291.253V122.937H287.096V124.958H290.945V127.744H287.096V130.17H291.253V133ZM296.922 133H293.503V120.15H301.097V122.937H296.922V125.389H300.771V128.175H296.922V133ZM303.206 133V120.15H306.695V133H303.206ZM321.716 133H317.163L312.47 123.947H312.391C312.502 125.371 312.558 126.458 312.558 127.208V133H309.481V120.15H314.017L318.692 129.08H318.745C318.663 127.785 318.622 126.745 318.622 125.96V120.15H321.716V133ZM332.122 133H324.493V120.15H332.122V122.937H327.965V124.958H331.814V127.744H327.965V130.17H332.122V133Z" fill="#182028"/>
<path d="M450.462 126.303C450.462 128.447 449.87 130.1 448.687 131.26C447.509 132.42 445.851 133 443.712 133H439.555V120.15H444.002C446.064 120.15 447.655 120.678 448.774 121.732C449.899 122.787 450.462 124.311 450.462 126.303ZM446.858 126.426C446.858 125.248 446.624 124.375 446.155 123.807C445.692 123.238 444.986 122.954 444.037 122.954H443.026V130.152H443.8C444.854 130.152 445.628 129.848 446.12 129.238C446.612 128.623 446.858 127.686 446.858 126.426ZM460.402 133H452.773V120.15H460.402V122.937H456.245V124.958H460.095V127.744H456.245V130.17H460.402V133ZM469.868 120.15H473.753L469.543 133H465.456L461.264 120.15H465.166L466.915 126.663C467.278 128.11 467.478 129.118 467.513 129.687C467.554 129.276 467.636 128.764 467.759 128.148C467.882 127.533 467.99 127.05 468.084 126.698L469.868 120.15ZM482.779 133H475.15V120.15H482.779V122.937H478.622V124.958H482.472V127.744H478.622V130.17H482.779V133ZM485.029 133V120.15H488.501V130.196H493.449V133H485.029ZM507.529 126.558C507.529 128.72 506.999 130.363 505.938 131.488C504.878 132.613 503.325 133.176 501.28 133.176C499.265 133.176 497.718 132.61 496.64 131.479C495.567 130.349 495.031 128.702 495.031 126.54C495.031 124.401 495.564 122.77 496.631 121.645C497.703 120.514 499.259 119.948 501.298 119.948C503.343 119.948 504.893 120.508 505.947 121.627C507.002 122.746 507.529 124.39 507.529 126.558ZM498.688 126.558C498.688 129.042 499.552 130.284 501.28 130.284C502.159 130.284 502.81 129.982 503.231 129.379C503.659 128.775 503.873 127.835 503.873 126.558C503.873 125.274 503.656 124.328 503.223 123.719C502.795 123.104 502.153 122.796 501.298 122.796C499.558 122.796 498.688 124.05 498.688 126.558ZM519.175 124.237C519.175 125.673 518.75 126.783 517.9 127.568C517.057 128.348 515.855 128.737 514.297 128.737H513.321V133H509.85V120.15H514.297C515.92 120.15 517.139 120.505 517.953 121.214C518.768 121.923 519.175 122.931 519.175 124.237ZM513.321 125.907H513.954C514.476 125.907 514.889 125.761 515.193 125.468C515.504 125.175 515.659 124.771 515.659 124.255C515.659 123.388 515.179 122.954 514.218 122.954H513.321V125.907Z" fill="#182028"/>
<path d="M633.092 126.303C633.092 128.447 632.5 130.1 631.316 131.26C630.139 132.42 628.48 133 626.342 133H622.185V120.15H626.632C628.694 120.15 630.285 120.678 631.404 121.732C632.529 122.787 633.092 124.311 633.092 126.303ZM629.488 126.426C629.488 125.248 629.254 124.375 628.785 123.807C628.322 123.238 627.616 122.954 626.667 122.954H625.656V130.152H626.43C627.484 130.152 628.258 129.848 628.75 129.238C629.242 128.623 629.488 127.686 629.488 126.426ZM643.032 133H635.403V120.15H643.032V122.937H638.875V124.958H642.725V127.744H638.875V130.17H643.032V133ZM645.282 133V120.15H648.754V130.196H653.702V133H645.282ZM655.759 133V120.15H659.248V133H655.759ZM669.25 120.15H673.135L668.925 133H664.838L660.646 120.15H664.548L666.297 126.663C666.66 128.11 666.859 129.118 666.895 129.687C666.936 129.276 667.018 128.764 667.141 128.148C667.264 127.533 667.372 127.05 667.466 126.698L669.25 120.15ZM682.161 133H674.532V120.15H682.161V122.937H678.004V124.958H681.854V127.744H678.004V130.17H682.161V133ZM687.883 128.324V133H684.411V120.15H688.621C692.113 120.15 693.859 121.416 693.859 123.947C693.859 125.436 693.133 126.587 691.68 127.401L695.424 133H691.486L688.762 128.324H687.883ZM687.883 125.714H688.533C689.746 125.714 690.353 125.178 690.353 124.105C690.353 123.221 689.758 122.778 688.568 122.778H687.883V125.714Z" fill="#182028"/>
<path d="M174.172 8.00586H176.312L172.915 18H170.604L167.213 8.00586H169.353L171.233 13.9531C171.338 14.304 171.445 14.7142 171.554 15.1836C171.668 15.6484 171.739 15.972 171.766 16.1543C171.816 15.735 171.987 15.0013 172.279 13.9531L174.172 8.00586ZM181.916 18L181.513 16.9609H181.458C181.107 17.403 180.745 17.7106 180.371 17.8838C180.002 18.0524 179.519 18.1367 178.922 18.1367C178.188 18.1367 177.61 17.9271 177.186 17.5078C176.766 17.0885 176.557 16.4915 176.557 15.7168C176.557 14.9056 176.839 14.3086 177.404 13.9258C177.974 13.5384 178.831 13.3242 179.975 13.2832L181.301 13.2422V12.9072C181.301 12.1325 180.904 11.7451 180.112 11.7451C179.501 11.7451 178.783 11.9297 177.958 12.2988L177.268 10.8906C178.147 10.4303 179.123 10.2002 180.194 10.2002C181.219 10.2002 182.005 10.4235 182.552 10.8701C183.099 11.3167 183.372 11.9958 183.372 12.9072V18H181.916ZM181.301 14.459L180.494 14.4863C179.888 14.5046 179.437 14.6139 179.141 14.8145C178.845 15.015 178.696 15.3203 178.696 15.7305C178.696 16.3184 179.034 16.6123 179.708 16.6123C180.191 16.6123 180.576 16.4733 180.863 16.1953C181.155 15.9173 181.301 15.5482 181.301 15.0879V14.459ZM187.261 18H185.176V7.36328H187.261V18ZM189.016 8.38184C189.016 7.7028 189.394 7.36328 190.151 7.36328C190.907 7.36328 191.286 7.7028 191.286 8.38184C191.286 8.7054 191.19 8.95833 190.998 9.14062C190.812 9.31836 190.529 9.40723 190.151 9.40723C189.394 9.40723 189.016 9.06543 189.016 8.38184ZM191.19 18H189.105V10.3574H191.19V18ZM195.454 18.1367C194.556 18.1367 193.85 17.7881 193.335 17.0908C192.825 16.3936 192.569 15.4274 192.569 14.1924C192.569 12.9391 192.829 11.9639 193.349 11.2666C193.873 10.5648 194.593 10.2139 195.509 10.2139C196.47 10.2139 197.204 10.5876 197.71 11.335H197.778C197.674 10.7653 197.621 10.2572 197.621 9.81055V7.36328H199.713V18H198.113L197.71 17.0088H197.621C197.147 17.7607 196.425 18.1367 195.454 18.1367ZM196.186 16.4756C196.719 16.4756 197.108 16.3206 197.354 16.0107C197.605 15.7008 197.742 15.1745 197.765 14.4316V14.2061C197.765 13.3857 197.637 12.7979 197.382 12.4424C197.131 12.0869 196.721 11.9092 196.151 11.9092C195.687 11.9092 195.324 12.1074 195.064 12.5039C194.809 12.8958 194.682 13.4678 194.682 14.2197C194.682 14.9717 194.812 15.5368 195.071 15.915C195.331 16.2887 195.702 16.4756 196.186 16.4756ZM206.397 18L205.994 16.9609H205.939C205.588 17.403 205.226 17.7106 204.852 17.8838C204.483 18.0524 204 18.1367 203.403 18.1367C202.669 18.1367 202.09 17.9271 201.667 17.5078C201.247 17.0885 201.038 16.4915 201.038 15.7168C201.038 14.9056 201.32 14.3086 201.885 13.9258C202.455 13.5384 203.312 13.3242 204.456 13.2832L205.782 13.2422V12.9072C205.782 12.1325 205.385 11.7451 204.592 11.7451C203.982 11.7451 203.264 11.9297 202.439 12.2988L201.749 10.8906C202.628 10.4303 203.603 10.2002 204.674 10.2002C205.7 10.2002 206.486 10.4235 207.033 10.8701C207.58 11.3167 207.853 11.9958 207.853 12.9072V18H206.397ZM205.782 14.459L204.975 14.4863C204.369 14.5046 203.918 14.6139 203.622 14.8145C203.325 15.015 203.177 15.3203 203.177 15.7305C203.177 16.3184 203.515 16.6123 204.189 16.6123C204.672 16.6123 205.057 16.4733 205.344 16.1953C205.636 15.9173 205.782 15.5482 205.782 15.0879V14.459ZM212.876 16.4756C213.241 16.4756 213.678 16.3958 214.189 16.2363V17.7881C213.669 18.0205 213.031 18.1367 212.275 18.1367C211.441 18.1367 210.832 17.9271 210.449 17.5078C210.071 17.084 209.882 16.4505 209.882 15.6074V11.9229H208.884V11.041L210.032 10.3438L210.634 8.73047H211.967V10.3574H214.107V11.9229H211.967V15.6074C211.967 15.9036 212.049 16.1224 212.213 16.2637C212.382 16.4049 212.603 16.4756 212.876 16.4756ZM215.302 8.38184C215.302 7.7028 215.68 7.36328 216.436 7.36328C217.193 7.36328 217.571 7.7028 217.571 8.38184C217.571 8.7054 217.475 8.95833 217.284 9.14062C217.097 9.31836 216.815 9.40723 216.436 9.40723C215.68 9.40723 215.302 9.06543 215.302 8.38184ZM217.475 18H215.39V10.3574H217.475V18ZM226.374 18H224.289V13.5361C224.289 12.9847 224.191 12.5723 223.996 12.2988C223.8 12.0208 223.487 11.8818 223.059 11.8818C222.476 11.8818 222.054 12.0778 221.794 12.4697C221.535 12.8571 221.405 13.502 221.405 14.4043V18H219.32V10.3574H220.913L221.193 11.335H221.309C221.541 10.9658 221.86 10.6878 222.266 10.501C222.676 10.3096 223.141 10.2139 223.661 10.2139C224.549 10.2139 225.224 10.4554 225.684 10.9385C226.144 11.417 226.374 12.1097 226.374 13.0166V18ZM234.822 10.3574V11.417L233.626 11.7246C233.845 12.0664 233.954 12.4492 233.954 12.873C233.954 13.6934 233.667 14.3337 233.093 14.7939C232.523 15.2497 231.73 15.4775 230.714 15.4775L230.338 15.457L230.03 15.4229C229.816 15.5869 229.709 15.7692 229.709 15.9697C229.709 16.2705 230.092 16.4209 230.857 16.4209H232.156C232.995 16.4209 233.633 16.6009 234.07 16.9609C234.512 17.321 234.733 17.8496 234.733 18.5469C234.733 19.4401 234.36 20.1328 233.612 20.625C232.869 21.1172 231.801 21.3633 230.406 21.3633C229.34 21.3633 228.524 21.1764 227.959 20.8027C227.398 20.4336 227.118 19.9141 227.118 19.2441C227.118 18.7839 227.262 18.3988 227.549 18.0889C227.836 17.779 228.257 17.5579 228.813 17.4258C228.599 17.3346 228.412 17.1865 228.253 16.9814C228.093 16.7718 228.014 16.5508 228.014 16.3184C228.014 16.0267 228.098 15.7852 228.267 15.5938C228.435 15.3978 228.679 15.2064 228.998 15.0195C228.597 14.8464 228.278 14.5684 228.041 14.1855C227.809 13.8027 227.692 13.3516 227.692 12.832C227.692 11.998 227.964 11.3532 228.506 10.8975C229.048 10.4417 229.823 10.2139 230.83 10.2139C231.044 10.2139 231.297 10.2344 231.589 10.2754C231.885 10.3118 232.074 10.3392 232.156 10.3574H234.822ZM228.923 19.0801C228.923 19.3672 229.06 19.5928 229.333 19.7568C229.611 19.9209 229.998 20.0029 230.495 20.0029C231.243 20.0029 231.828 19.9004 232.252 19.6953C232.676 19.4902 232.888 19.21 232.888 18.8545C232.888 18.5674 232.762 18.3691 232.512 18.2598C232.261 18.1504 231.874 18.0957 231.35 18.0957H230.27C229.887 18.0957 229.565 18.1846 229.306 18.3623C229.05 18.5446 228.923 18.7839 228.923 19.0801ZM229.682 12.8594C229.682 13.2741 229.775 13.6022 229.962 13.8438C230.153 14.0853 230.443 14.2061 230.83 14.2061C231.222 14.2061 231.509 14.0853 231.691 13.8438C231.874 13.6022 231.965 13.2741 231.965 12.8594C231.965 11.9388 231.587 11.4785 230.83 11.4785C230.064 11.4785 229.682 11.9388 229.682 12.8594ZM242.243 16.4756C242.608 16.4756 243.045 16.3958 243.556 16.2363V17.7881C243.036 18.0205 242.398 18.1367 241.642 18.1367C240.808 18.1367 240.199 17.9271 239.817 17.5078C239.438 17.084 239.249 16.4505 239.249 15.6074V11.9229H238.251V11.041L239.4 10.3438L240.001 8.73047H241.334V10.3574H243.474V11.9229H241.334V15.6074C241.334 15.9036 241.416 16.1224 241.58 16.2637C241.749 16.4049 241.97 16.4756 242.243 16.4756ZM251.812 18H249.727V13.5361C249.727 12.4333 249.317 11.8818 248.497 11.8818C247.914 11.8818 247.492 12.0801 247.232 12.4766C246.972 12.873 246.843 13.5156 246.843 14.4043V18H244.758V7.36328H246.843V9.53027C246.843 9.69889 246.827 10.0954 246.795 10.7197L246.747 11.335H246.856C247.321 10.5876 248.059 10.2139 249.071 10.2139C249.969 10.2139 250.65 10.4554 251.115 10.9385C251.58 11.4215 251.812 12.1143 251.812 13.0166V18ZM256.774 11.6973C256.332 11.6973 255.985 11.8385 255.735 12.1211C255.484 12.3991 255.341 12.7956 255.304 13.3105H258.23C258.221 12.7956 258.086 12.3991 257.827 12.1211C257.567 11.8385 257.216 11.6973 256.774 11.6973ZM257.068 18.1367C255.837 18.1367 254.876 17.7972 254.183 17.1182C253.49 16.4391 253.144 15.4775 253.144 14.2334C253.144 12.9528 253.463 11.9639 254.101 11.2666C254.744 10.5648 255.63 10.2139 256.76 10.2139C257.84 10.2139 258.681 10.5215 259.283 11.1367C259.884 11.752 260.185 12.6019 260.185 13.6865V14.6982H255.256C255.279 15.2907 255.454 15.7533 255.783 16.0859C256.111 16.4186 256.571 16.585 257.163 16.585C257.624 16.585 258.059 16.5371 258.469 16.4414C258.879 16.3457 259.308 16.193 259.754 15.9834V17.5967C259.39 17.779 259 17.9134 258.585 18C258.171 18.0911 257.665 18.1367 257.068 18.1367ZM190.817 37.1367C189.919 37.1367 189.215 36.8109 188.704 36.1592H188.595C188.668 36.7972 188.704 37.1663 188.704 37.2666V40.3633H186.619V29.3574H188.315L188.609 30.3486H188.704C189.192 29.5921 189.914 29.2139 190.871 29.2139C191.774 29.2139 192.48 29.5625 192.99 30.2598C193.501 30.957 193.756 31.9255 193.756 33.165C193.756 33.9808 193.635 34.6895 193.394 35.291C193.157 35.8926 192.817 36.3506 192.375 36.665C191.933 36.9795 191.414 37.1367 190.817 37.1367ZM190.201 30.8818C189.686 30.8818 189.31 31.0413 189.073 31.3604C188.836 31.6748 188.713 32.1966 188.704 32.9258V33.1514C188.704 33.9717 188.825 34.5596 189.067 34.915C189.313 35.2705 189.7 35.4482 190.229 35.4482C191.163 35.4482 191.63 34.6781 191.63 33.1377C191.63 32.3857 191.514 31.8229 191.281 31.4492C191.054 31.071 190.694 30.8818 190.201 30.8818ZM199.394 29.2139C199.677 29.2139 199.912 29.2344 200.098 29.2754L199.941 31.2305C199.773 31.1849 199.568 31.1621 199.326 31.1621C198.661 31.1621 198.141 31.333 197.767 31.6748C197.398 32.0166 197.214 32.4951 197.214 33.1104V37H195.129V29.3574H196.708L197.015 30.6426H197.118C197.355 30.2142 197.674 29.8701 198.075 29.6104C198.481 29.346 198.92 29.2139 199.394 29.2139ZM202.797 33.165C202.797 33.9215 202.92 34.4935 203.166 34.8809C203.417 35.2682 203.823 35.4619 204.383 35.4619C204.939 35.4619 205.338 35.2705 205.579 34.8877C205.826 34.5003 205.949 33.9261 205.949 33.165C205.949 32.4085 205.826 31.8411 205.579 31.4629C205.333 31.0846 204.93 30.8955 204.37 30.8955C203.814 30.8955 203.412 31.0846 203.166 31.4629C202.92 31.8366 202.797 32.404 202.797 33.165ZM208.081 33.165C208.081 34.4092 207.753 35.3822 207.097 36.084C206.441 36.7858 205.527 37.1367 204.356 37.1367C203.622 37.1367 202.975 36.9772 202.414 36.6582C201.854 36.3346 201.423 35.8721 201.122 35.2705C200.822 34.6689 200.671 33.9671 200.671 33.165C200.671 31.9163 200.997 30.9456 201.649 30.2529C202.301 29.5602 203.217 29.2139 204.397 29.2139C205.131 29.2139 205.778 29.3734 206.338 29.6924C206.899 30.0114 207.329 30.4694 207.63 31.0664C207.931 31.6634 208.081 32.363 208.081 33.165ZM213.706 29.2139C214.608 29.2139 215.315 29.5671 215.825 30.2734C216.336 30.9753 216.591 31.9391 216.591 33.165C216.591 34.4274 216.326 35.4049 215.798 36.0977C215.274 36.7904 214.558 37.1367 213.651 37.1367C212.754 37.1367 212.049 36.8109 211.539 36.1592H211.396L211.047 37H209.454V26.3633H211.539V28.8379C211.539 29.1523 211.512 29.6559 211.457 30.3486H211.539C212.027 29.5921 212.749 29.2139 213.706 29.2139ZM213.036 30.8818C212.521 30.8818 212.145 31.0413 211.908 31.3604C211.671 31.6748 211.548 32.1966 211.539 32.9258V33.1514C211.539 33.9717 211.66 34.5596 211.901 34.915C212.147 35.2705 212.535 35.4482 213.063 35.4482C213.492 35.4482 213.831 35.2523 214.082 34.8604C214.337 34.4639 214.465 33.8896 214.465 33.1377C214.465 32.3857 214.337 31.8229 214.082 31.4492C213.827 31.071 213.478 30.8818 213.036 30.8818ZM220.048 37H217.963V26.3633H220.048V37ZM225.058 30.6973C224.616 30.6973 224.269 30.8385 224.019 31.1211C223.768 31.3991 223.625 31.7956 223.588 32.3105H226.514C226.505 31.7956 226.37 31.3991 226.111 31.1211C225.851 30.8385 225.5 30.6973 225.058 30.6973ZM225.352 37.1367C224.121 37.1367 223.16 36.7972 222.467 36.1182C221.774 35.4391 221.428 34.4775 221.428 33.2334C221.428 31.9528 221.747 30.9639 222.385 30.2666C223.028 29.5648 223.914 29.2139 225.044 29.2139C226.124 29.2139 226.965 29.5215 227.567 30.1367C228.168 30.752 228.469 31.6019 228.469 32.6865V33.6982H223.54C223.563 34.2907 223.738 34.7533 224.067 35.0859C224.395 35.4186 224.855 35.585 225.447 35.585C225.908 35.585 226.343 35.5371 226.753 35.4414C227.163 35.3457 227.592 35.193 228.038 34.9834V36.5967C227.674 36.779 227.284 36.9134 226.869 37C226.455 37.0911 225.949 37.1367 225.352 37.1367ZM236.657 37H234.572V32.5361C234.572 31.9847 234.479 31.5723 234.292 31.2988C234.11 31.0208 233.82 30.8818 233.424 30.8818C232.89 30.8818 232.503 31.0778 232.262 31.4697C232.02 31.8617 231.899 32.5065 231.899 33.4043V37H229.814V29.3574H231.407L231.687 30.335H231.804C232.009 29.984 232.305 29.7106 232.692 29.5146C233.08 29.3141 233.524 29.2139 234.025 29.2139C235.169 29.2139 235.944 29.5876 236.349 30.335H236.534C236.739 29.9795 237.04 29.7038 237.436 29.5078C237.837 29.3118 238.289 29.2139 238.79 29.2139C239.656 29.2139 240.31 29.4372 240.752 29.8838C241.198 30.3258 241.422 31.0368 241.422 32.0166V37H239.33V32.5361C239.33 31.9847 239.236 31.5723 239.05 31.2988C238.867 31.0208 238.578 30.8818 238.181 30.8818C237.671 30.8818 237.288 31.0641 237.033 31.4287C236.782 31.7933 236.657 32.3721 236.657 33.165V37Z" fill="#B8B8B8"/>
<path d="M307.201 12.709H307.898C308.55 12.709 309.037 12.5814 309.361 12.3262C309.684 12.0664 309.846 11.6904 309.846 11.1982C309.846 10.7015 309.709 10.3346 309.436 10.0977C309.167 9.86068 308.743 9.74219 308.164 9.74219H307.201V12.709ZM311.986 11.123C311.986 12.1986 311.649 13.0212 310.974 13.5908C310.304 14.1605 309.349 14.4453 308.11 14.4453H307.201V18H305.081V8.00586H308.274C309.486 8.00586 310.407 8.2679 311.036 8.79199C311.669 9.31152 311.986 10.0885 311.986 11.123ZM317.624 10.2139C317.907 10.2139 318.141 10.2344 318.328 10.2754L318.171 12.2305C318.002 12.1849 317.797 12.1621 317.556 12.1621C316.89 12.1621 316.371 12.333 315.997 12.6748C315.628 13.0166 315.443 13.4951 315.443 14.1104V18H313.358V10.3574H314.938L315.245 11.6426H315.348C315.585 11.2142 315.904 10.8701 316.305 10.6104C316.71 10.346 317.15 10.2139 317.624 10.2139ZM321.027 14.165C321.027 14.9215 321.15 15.4935 321.396 15.8809C321.647 16.2682 322.052 16.4619 322.613 16.4619C323.169 16.4619 323.568 16.2705 323.809 15.8877C324.055 15.5003 324.178 14.9261 324.178 14.165C324.178 13.4085 324.055 12.8411 323.809 12.4629C323.563 12.0846 323.16 11.8955 322.599 11.8955C322.043 11.8955 321.642 12.0846 321.396 12.4629C321.15 12.8366 321.027 13.404 321.027 14.165ZM326.311 14.165C326.311 15.4092 325.983 16.3822 325.327 17.084C324.671 17.7858 323.757 18.1367 322.586 18.1367C321.852 18.1367 321.205 17.9772 320.644 17.6582C320.084 17.3346 319.653 16.8721 319.352 16.2705C319.051 15.6689 318.901 14.9671 318.901 14.165C318.901 12.9163 319.227 11.9456 319.879 11.2529C320.53 10.5602 321.446 10.2139 322.627 10.2139C323.36 10.2139 324.007 10.3734 324.568 10.6924C325.129 11.0114 325.559 11.4694 325.86 12.0664C326.161 12.6634 326.311 13.363 326.311 14.165ZM330.104 18.1367C329.206 18.1367 328.5 17.7881 327.985 17.0908C327.474 16.3936 327.219 15.4274 327.219 14.1924C327.219 12.9391 327.479 11.9639 327.998 11.2666C328.522 10.5648 329.242 10.2139 330.158 10.2139C331.12 10.2139 331.854 10.5876 332.36 11.335H332.428C332.323 10.7653 332.271 10.2572 332.271 9.81055V7.36328H334.363V18H332.763L332.36 17.0088H332.271C331.797 17.7607 331.074 18.1367 330.104 18.1367ZM330.835 16.4756C331.368 16.4756 331.758 16.3206 332.004 16.0107C332.255 15.7008 332.391 15.1745 332.414 14.4316V14.2061C332.414 13.3857 332.287 12.7979 332.031 12.4424C331.781 12.0869 331.371 11.9092 330.801 11.9092C330.336 11.9092 329.974 12.1074 329.714 12.5039C329.459 12.8958 329.331 13.4678 329.331 14.2197C329.331 14.9717 329.461 15.5368 329.721 15.915C329.981 16.2887 330.352 16.4756 330.835 16.4756ZM341.607 18L341.327 17.0225H341.218C340.994 17.3779 340.678 17.6536 340.267 17.8496C339.857 18.041 339.39 18.1367 338.866 18.1367C337.968 18.1367 337.291 17.8975 336.836 17.4189C336.38 16.9359 336.152 16.2432 336.152 15.3408V10.3574H338.237V14.8213C338.237 15.3727 338.335 15.7874 338.531 16.0654C338.727 16.3389 339.039 16.4756 339.468 16.4756C340.051 16.4756 340.472 16.2819 340.732 15.8945C340.992 15.5026 341.122 14.8555 341.122 13.9531V10.3574H343.207V18H341.607ZM348.148 18.1367C345.769 18.1367 344.579 16.8311 344.579 14.2197C344.579 12.9209 344.903 11.9297 345.55 11.2461C346.197 10.5579 347.125 10.2139 348.332 10.2139C349.217 10.2139 350.01 10.387 350.711 10.7334L350.096 12.3467C349.768 12.2145 349.463 12.1074 349.18 12.0254C348.898 11.9388 348.615 11.8955 348.332 11.8955C347.248 11.8955 346.705 12.6657 346.705 14.2061C346.705 15.7008 347.248 16.4482 348.332 16.4482C348.733 16.4482 349.105 16.3958 349.447 16.291C349.788 16.1816 350.13 16.013 350.472 15.7852V17.5693C350.135 17.7835 349.793 17.9316 349.447 18.0137C349.105 18.0957 348.672 18.1367 348.148 18.1367ZM355.119 16.4756C355.484 16.4756 355.921 16.3958 356.432 16.2363V17.7881C355.912 18.0205 355.274 18.1367 354.518 18.1367C353.684 18.1367 353.075 17.9271 352.692 17.5078C352.314 17.084 352.125 16.4505 352.125 15.6074V11.9229H351.127V11.041L352.275 10.3438L352.877 8.73047H354.21V10.3574H356.35V11.9229H354.21V15.6074C354.21 15.9036 354.292 16.1224 354.456 16.2637C354.625 16.4049 354.846 16.4756 355.119 16.4756ZM318.669 37V27.0059H320.788V37H318.669ZM325.209 37.1367C324.311 37.1367 323.605 36.7881 323.09 36.0908C322.58 35.3936 322.324 34.4274 322.324 33.1924C322.324 31.9391 322.584 30.9639 323.104 30.2666C323.628 29.5648 324.348 29.2139 325.264 29.2139C326.225 29.2139 326.959 29.5876 327.465 30.335H327.533C327.429 29.7653 327.376 29.2572 327.376 28.8105V26.3633H329.468V37H327.868L327.465 36.0088H327.376C326.902 36.7607 326.18 37.1367 325.209 37.1367ZM325.941 35.4756C326.474 35.4756 326.863 35.3206 327.11 35.0107C327.36 34.7008 327.497 34.1745 327.52 33.4316V33.2061C327.52 32.3857 327.392 31.7979 327.137 31.4424C326.886 31.0869 326.476 30.9092 325.906 30.9092C325.442 30.9092 325.079 31.1074 324.82 31.5039C324.564 31.8958 324.437 32.4678 324.437 33.2197C324.437 33.9717 324.567 34.5368 324.826 34.915C325.086 35.2887 325.458 35.4756 325.941 35.4756ZM334.464 30.6973C334.022 30.6973 333.675 30.8385 333.425 31.1211C333.174 31.3991 333.03 31.7956 332.994 32.3105H335.92C335.911 31.7956 335.776 31.3991 335.516 31.1211C335.257 30.8385 334.906 30.6973 334.464 30.6973ZM334.758 37.1367C333.527 37.1367 332.566 36.7972 331.873 36.1182C331.18 35.4391 330.834 34.4775 330.834 33.2334C330.834 31.9528 331.153 30.9639 331.791 30.2666C332.433 29.5648 333.32 29.2139 334.45 29.2139C335.53 29.2139 336.371 29.5215 336.972 30.1367C337.574 30.752 337.875 31.6019 337.875 32.6865V33.6982H332.946C332.969 34.2907 333.144 34.7533 333.472 35.0859C333.801 35.4186 334.261 35.585 334.853 35.585C335.314 35.585 335.749 35.5371 336.159 35.4414C336.569 35.3457 336.998 35.193 337.444 34.9834V36.5967C337.08 36.779 336.69 36.9134 336.275 37C335.86 37.0911 335.355 37.1367 334.758 37.1367ZM344.074 37L343.67 35.9609H343.616C343.265 36.403 342.902 36.7106 342.529 36.8838C342.16 37.0524 341.677 37.1367 341.079 37.1367C340.346 37.1367 339.767 36.9271 339.343 36.5078C338.924 36.0885 338.714 35.4915 338.714 34.7168C338.714 33.9056 338.997 33.3086 339.562 32.9258C340.132 32.5384 340.988 32.3242 342.132 32.2832L343.458 32.2422V31.9072C343.458 31.1325 343.062 30.7451 342.269 30.7451C341.658 30.7451 340.941 30.9297 340.116 31.2988L339.425 29.8906C340.305 29.4303 341.28 29.2002 342.351 29.2002C343.376 29.2002 344.163 29.4235 344.709 29.8701C345.256 30.3167 345.53 30.9958 345.53 31.9072V37H344.074ZM343.458 33.459L342.652 33.4863C342.046 33.5046 341.594 33.6139 341.298 33.8145C341.002 34.015 340.854 34.3203 340.854 34.7305C340.854 35.3184 341.191 35.6123 341.866 35.6123C342.349 35.6123 342.734 35.4733 343.021 35.1953C343.313 34.9173 343.458 34.5482 343.458 34.0879V33.459Z" fill="#B8B8B8"/>
<path d="M443.833 8.00586V14.4727C443.833 15.2109 443.666 15.8581 443.334 16.4141C443.005 16.9701 442.529 17.3962 441.905 17.6924C441.281 17.9886 440.542 18.1367 439.69 18.1367C438.405 18.1367 437.407 17.8086 436.696 17.1523C435.985 16.4915 435.629 15.5892 435.629 14.4453V8.00586H437.742V14.124C437.742 14.8942 437.897 15.4593 438.207 15.8193C438.517 16.1794 439.029 16.3594 439.745 16.3594C440.437 16.3594 440.939 16.1794 441.249 15.8193C441.563 15.4548 441.72 14.8851 441.72 14.1104V8.00586H443.833ZM451.098 15.7305C451.098 16.5143 450.824 17.1113 450.278 17.5215C449.735 17.9316 448.922 18.1367 447.837 18.1367C447.281 18.1367 446.807 18.098 446.415 18.0205C446.023 17.9476 445.656 17.8382 445.315 17.6924V15.9697C445.702 16.152 446.137 16.3047 446.62 16.4277C447.108 16.5508 447.536 16.6123 447.905 16.6123C448.662 16.6123 449.04 16.3936 449.04 15.9561C449.04 15.792 448.99 15.6598 448.89 15.5596C448.79 15.4548 448.616 15.3385 448.37 15.2109C448.124 15.0788 447.796 14.9261 447.386 14.7529C446.798 14.5068 446.365 14.279 446.087 14.0693C445.814 13.8597 445.613 13.6204 445.486 13.3516C445.363 13.0781 445.301 12.7432 445.301 12.3467C445.301 11.6676 445.563 11.1436 446.087 10.7744C446.616 10.4007 447.363 10.2139 448.329 10.2139C449.25 10.2139 450.145 10.4144 451.016 10.8154L450.387 12.3193C450.004 12.1553 449.646 12.0208 449.314 11.916C448.981 11.8112 448.641 11.7588 448.295 11.7588C447.68 11.7588 447.372 11.9251 447.372 12.2578C447.372 12.4447 447.47 12.6064 447.666 12.7432C447.867 12.8799 448.302 13.0827 448.972 13.3516C449.569 13.5931 450.006 13.8187 450.284 14.0283C450.562 14.238 450.767 14.4795 450.9 14.7529C451.032 15.0264 451.098 15.3522 451.098 15.7305ZM455.54 11.6973C455.098 11.6973 454.751 11.8385 454.501 12.1211C454.25 12.3991 454.107 12.7956 454.07 13.3105H456.996C456.987 12.7956 456.852 12.3991 456.593 12.1211C456.333 11.8385 455.982 11.6973 455.54 11.6973ZM455.834 18.1367C454.603 18.1367 453.642 17.7972 452.949 17.1182C452.256 16.4391 451.91 15.4775 451.91 14.2334C451.91 12.9528 452.229 11.9639 452.867 11.2666C453.51 10.5648 454.396 10.2139 455.526 10.2139C456.606 10.2139 457.447 10.5215 458.049 11.1367C458.65 11.752 458.951 12.6019 458.951 13.6865V14.6982H454.022C454.045 15.2907 454.221 15.7533 454.549 16.0859C454.877 16.4186 455.337 16.585 455.929 16.585C456.39 16.585 456.825 16.5371 457.235 16.4414C457.645 16.3457 458.074 16.193 458.52 15.9834V17.5967C458.156 17.779 457.766 17.9134 457.351 18C456.937 18.0911 456.431 18.1367 455.834 18.1367ZM464.562 10.2139C464.844 10.2139 465.079 10.2344 465.266 10.2754L465.109 12.2305C464.94 12.1849 464.735 12.1621 464.494 12.1621C463.828 12.1621 463.309 12.333 462.935 12.6748C462.566 13.0166 462.381 13.4951 462.381 14.1104V18H460.296V10.3574H461.875L462.183 11.6426H462.286C462.523 11.2142 462.842 10.8701 463.243 10.6104C463.648 10.346 464.088 10.2139 464.562 10.2139ZM424.11 39.9395C423.631 39.9395 423.214 39.8893 422.859 39.7891V38.0254C423.223 38.1165 423.556 38.1621 423.857 38.1621C424.321 38.1621 424.654 38.0163 424.855 37.7246C425.055 37.4375 425.155 36.9863 425.155 36.3711V27.0059H427.275V36.3574C427.275 37.5241 427.008 38.4128 426.475 39.0234C425.942 39.6341 425.153 39.9395 424.11 39.9395ZM430.937 33.165C430.937 33.9215 431.06 34.4935 431.306 34.8809C431.557 35.2682 431.963 35.4619 432.523 35.4619C433.079 35.4619 433.478 35.2705 433.72 34.8877C433.966 34.5003 434.089 33.9261 434.089 33.165C434.089 32.4085 433.966 31.8411 433.72 31.4629C433.473 31.0846 433.07 30.8955 432.51 30.8955C431.954 30.8955 431.553 31.0846 431.306 31.4629C431.06 31.8366 430.937 32.404 430.937 33.165ZM436.221 33.165C436.221 34.4092 435.893 35.3822 435.237 36.084C434.581 36.7858 433.667 37.1367 432.496 37.1367C431.762 37.1367 431.115 36.9772 430.554 36.6582C429.994 36.3346 429.563 35.8721 429.263 35.2705C428.962 34.6689 428.811 33.9671 428.811 33.165C428.811 31.9163 429.137 30.9456 429.789 30.2529C430.441 29.5602 431.357 29.2139 432.537 29.2139C433.271 29.2139 433.918 29.3734 434.478 29.6924C435.039 30.0114 435.47 30.4694 435.77 31.0664C436.071 31.6634 436.221 32.363 436.221 33.165ZM443.008 37L442.728 36.0225H442.619C442.395 36.3779 442.079 36.6536 441.668 36.8496C441.258 37.041 440.791 37.1367 440.267 37.1367C439.369 37.1367 438.692 36.8975 438.237 36.4189C437.781 35.9359 437.553 35.2432 437.553 34.3408V29.3574H439.638V33.8213C439.638 34.3727 439.736 34.7874 439.932 35.0654C440.128 35.3389 440.44 35.4756 440.869 35.4756C441.452 35.4756 441.873 35.2819 442.133 34.8945C442.393 34.5026 442.523 33.8555 442.523 32.9531V29.3574H444.608V37H443.008ZM450.711 29.2139C450.993 29.2139 451.228 29.2344 451.415 29.2754L451.258 31.2305C451.089 31.1849 450.884 31.1621 450.643 31.1621C449.977 31.1621 449.458 31.333 449.084 31.6748C448.715 32.0166 448.53 32.4951 448.53 33.1104V37H446.445V29.3574H448.024L448.332 30.6426H448.435C448.672 30.2142 448.991 29.8701 449.392 29.6104C449.797 29.346 450.237 29.2139 450.711 29.2139ZM459.507 37H457.422V32.5361C457.422 31.9847 457.324 31.5723 457.129 31.2988C456.933 31.0208 456.62 30.8818 456.192 30.8818C455.609 30.8818 455.187 31.0778 454.927 31.4697C454.668 31.8571 454.538 32.502 454.538 33.4043V37H452.453V29.3574H454.046L454.326 30.335H454.442C454.674 29.9658 454.993 29.6878 455.399 29.501C455.809 29.3096 456.274 29.2139 456.794 29.2139C457.682 29.2139 458.357 29.4554 458.817 29.9385C459.277 30.417 459.507 31.1097 459.507 32.0166V37ZM464.469 30.6973C464.027 30.6973 463.681 30.8385 463.43 31.1211C463.179 31.3991 463.036 31.7956 462.999 32.3105H465.925C465.916 31.7956 465.781 31.3991 465.522 31.1211C465.262 30.8385 464.911 30.6973 464.469 30.6973ZM464.763 37.1367C463.532 37.1367 462.571 36.7972 461.878 36.1182C461.185 35.4391 460.839 34.4775 460.839 33.2334C460.839 31.9528 461.158 30.9639 461.796 30.2666C462.439 29.5648 463.325 29.2139 464.455 29.2139C465.535 29.2139 466.376 29.5215 466.978 30.1367C467.579 30.752 467.88 31.6019 467.88 32.6865V33.6982H462.951C462.974 34.2907 463.15 34.7533 463.478 35.0859C463.806 35.4186 464.266 35.585 464.859 35.585C465.319 35.585 465.754 35.5371 466.164 35.4414C466.574 35.3457 467.003 35.193 467.449 34.9834V36.5967C467.085 36.779 466.695 36.9134 466.28 37C465.866 37.0911 465.36 37.1367 464.763 37.1367ZM468.132 29.3574H470.415L471.857 33.6572C471.98 34.0309 472.065 34.473 472.11 34.9834H472.151C472.201 34.514 472.299 34.0719 472.445 33.6572L473.86 29.3574H476.096L472.862 37.9775C472.566 38.7751 472.142 39.3721 471.591 39.7686C471.044 40.165 470.403 40.3633 469.67 40.3633C469.31 40.3633 468.957 40.3245 468.61 40.2471V38.5928C468.861 38.652 469.134 38.6816 469.43 38.6816C469.8 38.6816 470.121 38.5677 470.394 38.3398C470.672 38.1165 470.889 37.777 471.044 37.3213L471.167 36.9453L468.132 29.3574Z" fill="#B8B8B8"/>
<path d="M554.742 12.9072C554.742 14.5524 554.273 15.8125 553.334 16.6875C552.4 17.5625 551.049 18 549.28 18H546.45V8.00586H549.588C551.22 8.00586 552.487 8.43652 553.389 9.29785C554.291 10.1592 554.742 11.3623 554.742 12.9072ZM552.541 12.9619C552.541 10.8154 551.593 9.74219 549.697 9.74219H548.57V16.25H549.479C551.52 16.25 552.541 15.154 552.541 12.9619ZM560.565 10.2139C560.848 10.2139 561.082 10.2344 561.269 10.2754L561.112 12.2305C560.943 12.1849 560.738 12.1621 560.497 12.1621C559.832 12.1621 559.312 12.333 558.938 12.6748C558.569 13.0166 558.385 13.4951 558.385 14.1104V18H556.3V10.3574H557.879L558.186 11.6426H558.289C558.526 11.2142 558.845 10.8701 559.246 10.6104C559.651 10.346 560.091 10.2139 560.565 10.2139ZM567.161 18L566.757 16.9609H566.703C566.352 17.403 565.989 17.7106 565.616 17.8838C565.246 18.0524 564.763 18.1367 564.166 18.1367C563.433 18.1367 562.854 17.9271 562.43 17.5078C562.011 17.0885 561.801 16.4915 561.801 15.7168C561.801 14.9056 562.084 14.3086 562.649 13.9258C563.218 13.5384 564.075 13.3242 565.219 13.2832L566.545 13.2422V12.9072C566.545 12.1325 566.149 11.7451 565.356 11.7451C564.745 11.7451 564.027 11.9297 563.203 12.2988L562.512 10.8906C563.392 10.4303 564.367 10.2002 565.438 10.2002C566.463 10.2002 567.249 10.4235 567.796 10.8701C568.343 11.3167 568.617 11.9958 568.617 12.9072V18H567.161ZM566.545 14.459L565.739 14.4863C565.133 14.5046 564.681 14.6139 564.385 14.8145C564.089 15.015 563.941 15.3203 563.941 15.7305C563.941 16.3184 564.278 16.6123 564.953 16.6123C565.436 16.6123 565.821 16.4733 566.108 16.1953C566.399 15.9173 566.545 15.5482 566.545 15.0879V14.459ZM574.645 11.9229H572.84V18H570.755V11.9229H569.606V10.918L570.755 10.3574V9.79688C570.755 8.92643 570.969 8.29069 571.397 7.88965C571.826 7.48861 572.512 7.28809 573.455 7.28809C574.175 7.28809 574.815 7.39518 575.376 7.60938L574.843 9.14062C574.424 9.00846 574.036 8.94238 573.681 8.94238C573.384 8.94238 573.17 9.03125 573.038 9.20898C572.906 9.38216 572.84 9.60547 572.84 9.87891V10.3574H574.645V11.9229ZM578.717 16.4756C579.082 16.4756 579.519 16.3958 580.03 16.2363V17.7881C579.51 18.0205 578.872 18.1367 578.116 18.1367C577.282 18.1367 576.673 17.9271 576.291 17.5078C575.912 17.084 575.723 16.4505 575.723 15.6074V11.9229H574.725V11.041L575.874 10.3438L576.475 8.73047H577.808V10.3574H579.948V11.9229H577.808V15.6074C577.808 15.9036 577.89 16.1224 578.054 16.2637C578.223 16.4049 578.444 16.4756 578.717 16.4756ZM586.564 15.7305C586.564 16.5143 586.29 17.1113 585.743 17.5215C585.201 17.9316 584.388 18.1367 583.303 18.1367C582.747 18.1367 582.273 18.098 581.881 18.0205C581.489 17.9476 581.122 17.8382 580.78 17.6924V15.9697C581.168 16.152 581.603 16.3047 582.086 16.4277C582.574 16.5508 583.002 16.6123 583.371 16.6123C584.128 16.6123 584.506 16.3936 584.506 15.9561C584.506 15.792 584.456 15.6598 584.356 15.5596C584.255 15.4548 584.082 15.3385 583.836 15.2109C583.59 15.0788 583.262 14.9261 582.852 14.7529C582.264 14.5068 581.831 14.279 581.553 14.0693C581.279 13.8597 581.079 13.6204 580.951 13.3516C580.828 13.0781 580.767 12.7432 580.767 12.3467C580.767 11.6676 581.029 11.1436 581.553 10.7744C582.082 10.4007 582.829 10.2139 583.795 10.2139C584.716 10.2139 585.611 10.4144 586.482 10.8154L585.853 12.3193C585.47 12.1553 585.112 12.0208 584.779 11.916C584.447 11.8112 584.107 11.7588 583.761 11.7588C583.146 11.7588 582.838 11.9251 582.838 12.2578C582.838 12.4447 582.936 12.6064 583.132 12.7432C583.333 12.8799 583.768 13.0827 584.438 13.3516C585.035 13.5931 585.472 13.8187 585.75 14.0283C586.028 14.238 586.233 14.4795 586.365 14.7529C586.498 15.0264 586.564 15.3522 586.564 15.7305ZM589.885 16.5303C589.648 17.4508 589.247 18.5423 588.681 19.8047H587.178C587.474 18.5924 587.704 17.4486 587.868 16.373H589.782L589.885 16.5303ZM536.886 37L536.298 34.3271L535.505 30.9502H535.457L534.062 37H531.82L529.646 29.3574H531.724L532.606 32.7412C532.748 33.3473 532.891 34.1836 533.037 35.25H533.078C533.096 34.9036 533.176 34.3545 533.317 33.6025L533.427 33.0215L534.37 29.3574H536.667L537.562 33.0215C537.581 33.1217 537.608 33.2699 537.644 33.4658C537.685 33.6618 537.724 33.8714 537.761 34.0947C537.797 34.3135 537.829 34.5299 537.856 34.7441C537.888 34.9538 537.906 35.1224 537.911 35.25H537.952C537.993 34.9219 538.066 34.473 538.171 33.9033C538.276 33.3291 538.351 32.9417 538.396 32.7412L539.312 29.3574H541.356L539.155 37H536.886ZM542.155 27.3818C542.155 26.7028 542.533 26.3633 543.289 26.3633C544.046 26.3633 544.424 26.7028 544.424 27.3818C544.424 27.7054 544.329 27.9583 544.137 28.1406C543.95 28.3184 543.668 28.4072 543.289 28.4072C542.533 28.4072 542.155 28.0654 542.155 27.3818ZM544.329 37H542.244V29.3574H544.329V37ZM550.438 29.2139C550.721 29.2139 550.956 29.2344 551.143 29.2754L550.985 31.2305C550.817 31.1849 550.612 31.1621 550.37 31.1621C549.705 31.1621 549.185 31.333 548.812 31.6748C548.442 32.0166 548.258 32.4951 548.258 33.1104V37H546.173V29.3574H547.752L548.06 30.6426H548.162C548.399 30.2142 548.718 29.8701 549.119 29.6104C549.525 29.346 549.965 29.2139 550.438 29.2139ZM555.345 30.6973C554.903 30.6973 554.557 30.8385 554.306 31.1211C554.056 31.3991 553.912 31.7956 553.876 32.3105H556.801C556.792 31.7956 556.658 31.3991 556.398 31.1211C556.138 30.8385 555.787 30.6973 555.345 30.6973ZM555.639 37.1367C554.409 37.1367 553.447 36.7972 552.754 36.1182C552.062 35.4391 551.715 34.4775 551.715 33.2334C551.715 31.9528 552.034 30.9639 552.672 30.2666C553.315 29.5648 554.201 29.2139 555.332 29.2139C556.412 29.2139 557.253 29.5215 557.854 30.1367C558.456 30.752 558.756 31.6019 558.756 32.6865V33.6982H553.828C553.851 34.2907 554.026 34.7533 554.354 35.0859C554.682 35.4186 555.143 35.585 555.735 35.585C556.195 35.585 556.63 35.5371 557.041 35.4414C557.451 35.3457 557.879 35.193 558.326 34.9834V36.5967C557.961 36.779 557.572 36.9134 557.157 37C556.742 37.0911 556.236 37.1367 555.639 37.1367ZM564.326 30.9229H562.522V37H560.437V30.9229H559.288V29.918L560.437 29.3574V28.7969C560.437 27.9264 560.651 27.2907 561.079 26.8896C561.508 26.4886 562.194 26.2881 563.137 26.2881C563.857 26.2881 564.497 26.3952 565.058 26.6094L564.525 28.1406C564.105 28.0085 563.718 27.9424 563.363 27.9424C563.066 27.9424 562.852 28.0312 562.72 28.209C562.588 28.3822 562.522 28.6055 562.522 28.8789V29.3574H564.326V30.9229ZM569.445 29.2139C569.728 29.2139 569.962 29.2344 570.149 29.2754L569.992 31.2305C569.823 31.1849 569.618 31.1621 569.377 31.1621C568.711 31.1621 568.192 31.333 567.818 31.6748C567.449 32.0166 567.264 32.4951 567.264 33.1104V37H565.179V29.3574H566.759L567.066 30.6426H567.169C567.406 30.2142 567.725 29.8701 568.126 29.6104C568.531 29.346 568.971 29.2139 569.445 29.2139ZM576.04 37L575.637 35.9609H575.582C575.232 36.403 574.869 36.7106 574.496 36.8838C574.126 37.0524 573.643 37.1367 573.046 37.1367C572.313 37.1367 571.734 36.9271 571.31 36.5078C570.891 36.0885 570.681 35.4915 570.681 34.7168C570.681 33.9056 570.964 33.3086 571.529 32.9258C572.098 32.5384 572.955 32.3242 574.099 32.2832L575.425 32.2422V31.9072C575.425 31.1325 575.029 30.7451 574.236 30.7451C573.625 30.7451 572.907 30.9297 572.082 31.2988L571.392 29.8906C572.272 29.4303 573.247 29.2002 574.318 29.2002C575.343 29.2002 576.129 29.4235 576.676 29.8701C577.223 30.3167 577.496 30.9958 577.496 31.9072V37H576.04ZM575.425 33.459L574.619 33.4863C574.012 33.5046 573.561 33.6139 573.265 33.8145C572.969 34.015 572.821 34.3203 572.821 34.7305C572.821 35.3184 573.158 35.6123 573.832 35.6123C574.315 35.6123 574.701 35.4733 574.988 35.1953C575.279 34.9173 575.425 34.5482 575.425 34.0879V33.459ZM586.143 37H584.058V32.5361C584.058 31.9847 583.964 31.5723 583.777 31.2988C583.595 31.0208 583.306 30.8818 582.909 30.8818C582.376 30.8818 581.989 31.0778 581.747 31.4697C581.506 31.8617 581.385 32.5065 581.385 33.4043V37H579.3V29.3574H580.893L581.173 30.335H581.289C581.494 29.984 581.79 29.7106 582.178 29.5146C582.565 29.3141 583.009 29.2139 583.511 29.2139C584.655 29.2139 585.429 29.5876 585.835 30.335H586.02C586.225 29.9795 586.525 29.7038 586.922 29.5078C587.323 29.3118 587.774 29.2139 588.275 29.2139C589.141 29.2139 589.795 29.4372 590.237 29.8838C590.684 30.3258 590.907 31.0368 590.907 32.0166V37H588.815V32.5361C588.815 31.9847 588.722 31.5723 588.535 31.2988C588.353 31.0208 588.063 30.8818 587.667 30.8818C587.157 30.8818 586.774 31.0641 586.519 31.4287C586.268 31.7933 586.143 32.3721 586.143 33.165V37ZM595.869 30.6973C595.427 30.6973 595.08 30.8385 594.83 31.1211C594.579 31.3991 594.435 31.7956 594.399 32.3105H597.325C597.316 31.7956 597.181 31.3991 596.921 31.1211C596.662 30.8385 596.311 30.6973 595.869 30.6973ZM596.163 37.1367C594.932 37.1367 593.971 36.7972 593.278 36.1182C592.585 35.4391 592.239 34.4775 592.239 33.2334C592.239 31.9528 592.558 30.9639 593.196 30.2666C593.838 29.5648 594.725 29.2139 595.855 29.2139C596.935 29.2139 597.776 29.5215 598.378 30.1367C598.979 30.752 599.28 31.6019 599.28 32.6865V33.6982H594.351C594.374 34.2907 594.549 34.7533 594.878 35.0859C595.206 35.4186 595.666 35.585 596.258 35.585C596.719 35.585 597.154 35.5371 597.564 35.4414C597.974 35.3457 598.403 35.193 598.849 34.9834V36.5967C598.485 36.779 598.095 36.9134 597.68 37C597.266 37.0911 596.76 37.1367 596.163 37.1367ZM605.957 34.7305C605.957 35.5143 605.684 36.1113 605.137 36.5215C604.595 36.9316 603.781 37.1367 602.696 37.1367C602.14 37.1367 601.667 37.098 601.275 37.0205C600.883 36.9476 600.516 36.8382 600.174 36.6924V34.9697C600.561 35.152 600.997 35.3047 601.48 35.4277C601.967 35.5508 602.396 35.6123 602.765 35.6123C603.521 35.6123 603.9 35.3936 603.9 34.9561C603.9 34.792 603.849 34.6598 603.749 34.5596C603.649 34.4548 603.476 34.3385 603.23 34.2109C602.984 34.0788 602.655 33.9261 602.245 33.7529C601.657 33.5068 601.224 33.279 600.946 33.0693C600.673 32.8597 600.473 32.6204 600.345 32.3516C600.222 32.0781 600.16 31.7432 600.16 31.3467C600.16 30.6676 600.422 30.1436 600.946 29.7744C601.475 29.4007 602.223 29.2139 603.189 29.2139C604.109 29.2139 605.005 29.4144 605.875 29.8154L605.246 31.3193C604.863 31.1553 604.506 31.0208 604.173 30.916C603.84 30.8112 603.501 30.7588 603.154 30.7588C602.539 30.7588 602.232 30.9251 602.232 31.2578C602.232 31.4447 602.33 31.6064 602.526 31.7432C602.726 31.8799 603.161 32.0827 603.831 32.3516C604.428 32.5931 604.866 32.8187 605.144 33.0283C605.422 33.238 605.627 33.4795 605.759 33.7529C605.891 34.0264 605.957 34.3522 605.957 34.7305Z" fill="#B8B8B8"/>
<path d="M652.596 12.709H653.293C653.944 12.709 654.432 12.5814 654.756 12.3262C655.079 12.0664 655.241 11.6904 655.241 11.1982C655.241 10.7015 655.104 10.3346 654.831 10.0977C654.562 9.86068 654.138 9.74219 653.559 9.74219H652.596V12.709ZM657.381 11.123C657.381 12.1986 657.043 13.0212 656.369 13.5908C655.699 14.1605 654.744 14.4453 653.505 14.4453H652.596V18H650.476V8.00586H653.669C654.881 8.00586 655.802 8.2679 656.43 8.79199C657.064 9.31152 657.381 10.0885 657.381 11.123ZM663.019 10.2139C663.301 10.2139 663.536 10.2344 663.723 10.2754L663.566 12.2305C663.397 12.1849 663.192 12.1621 662.951 12.1621C662.285 12.1621 661.766 12.333 661.392 12.6748C661.023 13.0166 660.838 13.4951 660.838 14.1104V18H658.753V10.3574H660.332L660.64 11.6426H660.743C660.98 11.2142 661.299 10.8701 661.7 10.6104C662.105 10.346 662.545 10.2139 663.019 10.2139ZM666.422 14.165C666.422 14.9215 666.545 15.4935 666.791 15.8809C667.042 16.2682 667.447 16.4619 668.008 16.4619C668.564 16.4619 668.963 16.2705 669.204 15.8877C669.45 15.5003 669.573 14.9261 669.573 14.165C669.573 13.4085 669.45 12.8411 669.204 12.4629C668.958 12.0846 668.555 11.8955 667.994 11.8955C667.438 11.8955 667.037 12.0846 666.791 12.4629C666.545 12.8366 666.422 13.404 666.422 14.165ZM671.706 14.165C671.706 15.4092 671.378 16.3822 670.722 17.084C670.065 17.7858 669.152 18.1367 667.98 18.1367C667.247 18.1367 666.6 17.9772 666.039 17.6582C665.479 17.3346 665.048 16.8721 664.747 16.2705C664.446 15.6689 664.296 14.9671 664.296 14.165C664.296 12.9163 664.622 11.9456 665.273 11.2529C665.925 10.5602 666.841 10.2139 668.021 10.2139C668.755 10.2139 669.402 10.3734 669.963 10.6924C670.523 11.0114 670.954 11.4694 671.255 12.0664C671.556 12.6634 671.706 13.363 671.706 14.165ZM676.298 16.4756C676.663 16.4756 677.101 16.3958 677.611 16.2363V17.7881C677.091 18.0205 676.453 18.1367 675.697 18.1367C674.863 18.1367 674.254 17.9271 673.872 17.5078C673.493 17.084 673.304 16.4505 673.304 15.6074V11.9229H672.306V11.041L673.455 10.3438L674.056 8.73047H675.389V10.3574H677.529V11.9229H675.389V15.6074C675.389 15.9036 675.471 16.1224 675.635 16.2637C675.804 16.4049 676.025 16.4756 676.298 16.4756ZM680.474 14.165C680.474 14.9215 680.597 15.4935 680.843 15.8809C681.094 16.2682 681.499 16.4619 682.06 16.4619C682.616 16.4619 683.015 16.2705 683.256 15.8877C683.502 15.5003 683.625 14.9261 683.625 14.165C683.625 13.4085 683.502 12.8411 683.256 12.4629C683.01 12.0846 682.607 11.8955 682.046 11.8955C681.49 11.8955 681.089 12.0846 680.843 12.4629C680.597 12.8366 680.474 13.404 680.474 14.165ZM685.758 14.165C685.758 15.4092 685.43 16.3822 684.774 17.084C684.117 17.7858 683.204 18.1367 682.032 18.1367C681.299 18.1367 680.652 17.9772 680.091 17.6582C679.53 17.3346 679.1 16.8721 678.799 16.2705C678.498 15.6689 678.348 14.9671 678.348 14.165C678.348 12.9163 678.674 11.9456 679.325 11.2529C679.977 10.5602 680.893 10.2139 682.073 10.2139C682.807 10.2139 683.454 10.3734 684.015 10.6924C684.575 11.0114 685.006 11.4694 685.307 12.0664C685.608 12.6634 685.758 13.363 685.758 14.165ZM690.35 16.4756C690.715 16.4756 691.152 16.3958 691.663 16.2363V17.7881C691.143 18.0205 690.505 18.1367 689.749 18.1367C688.915 18.1367 688.306 17.9271 687.924 17.5078C687.545 17.084 687.356 16.4505 687.356 15.6074V11.9229H686.358V11.041L687.507 10.3438L688.108 8.73047H689.441V10.3574H691.581V11.9229H689.441V15.6074C689.441 15.9036 689.523 16.1224 689.687 16.2637C689.856 16.4049 690.077 16.4756 690.35 16.4756ZM691.771 10.3574H694.054L695.496 14.6572C695.62 15.0309 695.704 15.473 695.749 15.9834H695.79C695.841 15.514 695.939 15.0719 696.084 14.6572L697.499 10.3574H699.735L696.501 18.9775C696.205 19.7751 695.781 20.3721 695.23 20.7686C694.683 21.165 694.043 21.3633 693.309 21.3633C692.949 21.3633 692.596 21.3245 692.249 21.2471V19.5928C692.5 19.652 692.774 19.6816 693.07 19.6816C693.439 19.6816 693.76 19.5677 694.034 19.3398C694.312 19.1165 694.528 18.777 694.683 18.3213L694.806 17.9453L691.771 10.3574ZM704.683 18.1367C703.785 18.1367 703.081 17.8109 702.57 17.1592H702.461C702.534 17.7972 702.57 18.1663 702.57 18.2666V21.3633H700.485V10.3574H702.181L702.475 11.3486H702.57C703.058 10.5921 703.78 10.2139 704.737 10.2139C705.64 10.2139 706.346 10.5625 706.856 11.2598C707.367 11.957 707.622 12.9255 707.622 14.165C707.622 14.9808 707.501 15.6895 707.26 16.291C707.023 16.8926 706.683 17.3506 706.241 17.665C705.799 17.9795 705.28 18.1367 704.683 18.1367ZM704.067 11.8818C703.552 11.8818 703.176 12.0413 702.939 12.3604C702.702 12.6748 702.579 13.1966 702.57 13.9258V14.1514C702.57 14.9717 702.691 15.5596 702.933 15.915C703.179 16.2705 703.566 16.4482 704.095 16.4482C705.029 16.4482 705.496 15.6781 705.496 14.1377C705.496 13.3857 705.38 12.8229 705.147 12.4492C704.92 12.071 704.56 11.8818 704.067 11.8818ZM712.16 11.6973C711.718 11.6973 711.371 11.8385 711.121 12.1211C710.87 12.3991 710.726 12.7956 710.69 13.3105H713.616C713.607 12.7956 713.472 12.3991 713.213 12.1211C712.953 11.8385 712.602 11.6973 712.16 11.6973ZM712.454 18.1367C711.223 18.1367 710.262 17.7972 709.569 17.1182C708.876 16.4391 708.53 15.4775 708.53 14.2334C708.53 12.9528 708.849 11.9639 709.487 11.2666C710.129 10.5648 711.016 10.2139 712.146 10.2139C713.226 10.2139 714.067 10.5215 714.669 11.1367C715.27 11.752 715.571 12.6019 715.571 13.6865V14.6982H710.642C710.665 15.2907 710.84 15.7533 711.169 16.0859C711.497 16.4186 711.957 16.585 712.549 16.585C713.01 16.585 713.445 16.5371 713.855 16.4414C714.265 16.3457 714.694 16.193 715.14 15.9834V17.5967C714.776 17.779 714.386 17.9134 713.971 18C713.557 18.0911 713.051 18.1367 712.454 18.1367ZM722.248 15.7305C722.248 16.5143 721.975 17.1113 721.428 17.5215C720.886 17.9316 720.072 18.1367 718.988 18.1367C718.432 18.1367 717.958 18.098 717.566 18.0205C717.174 17.9476 716.807 17.8382 716.465 17.6924V15.9697C716.852 16.152 717.288 16.3047 717.771 16.4277C718.258 16.5508 718.687 16.6123 719.056 16.6123C719.812 16.6123 720.191 16.3936 720.191 15.9561C720.191 15.792 720.14 15.6598 720.04 15.5596C719.94 15.4548 719.767 15.3385 719.521 15.2109C719.275 15.0788 718.946 14.9261 718.536 14.7529C717.948 14.5068 717.515 14.279 717.238 14.0693C716.964 13.8597 716.764 13.6204 716.636 13.3516C716.513 13.0781 716.451 12.7432 716.451 12.3467C716.451 11.6676 716.713 11.1436 717.238 10.7744C717.766 10.4007 718.514 10.2139 719.48 10.2139C720.4 10.2139 721.296 10.4144 722.166 10.8154L721.537 12.3193C721.154 12.1553 720.797 12.0208 720.464 11.916C720.131 11.8112 719.792 11.7588 719.446 11.7588C718.83 11.7588 718.523 11.9251 718.523 12.2578C718.523 12.4447 718.621 12.6064 718.817 12.7432C719.017 12.8799 719.452 13.0827 720.122 13.3516C720.719 13.5931 721.157 13.8187 721.435 14.0283C721.713 14.238 721.918 14.4795 722.05 14.7529C722.182 15.0264 722.248 15.3522 722.248 15.7305ZM666.754 37H664.635V28.7695H661.921V27.0059H669.468V28.7695H666.754V37ZM673.657 30.6973C673.215 30.6973 672.869 30.8385 672.618 31.1211C672.367 31.3991 672.224 31.7956 672.187 32.3105H675.113C675.104 31.7956 674.97 31.3991 674.71 31.1211C674.45 30.8385 674.099 30.6973 673.657 30.6973ZM673.951 37.1367C672.721 37.1367 671.759 36.7972 671.066 36.1182C670.374 35.4391 670.027 34.4775 670.027 33.2334C670.027 31.9528 670.346 30.9639 670.984 30.2666C671.627 29.5648 672.513 29.2139 673.643 29.2139C674.723 29.2139 675.564 29.5215 676.166 30.1367C676.767 30.752 677.068 31.6019 677.068 32.6865V33.6982H672.139C672.162 34.2907 672.338 34.7533 672.666 35.0859C672.994 35.4186 673.454 35.585 674.047 35.585C674.507 35.585 674.942 35.5371 675.352 35.4414C675.763 35.3457 676.191 35.193 676.638 34.9834V36.5967C676.273 36.779 675.883 36.9134 675.469 37C675.054 37.0911 674.548 37.1367 673.951 37.1367ZM683.746 34.7305C683.746 35.5143 683.472 36.1113 682.925 36.5215C682.383 36.9316 681.569 37.1367 680.485 37.1367C679.929 37.1367 679.455 37.098 679.063 37.0205C678.671 36.9476 678.304 36.8382 677.962 36.6924V34.9697C678.35 35.152 678.785 35.3047 679.268 35.4277C679.756 35.5508 680.184 35.6123 680.553 35.6123C681.31 35.6123 681.688 35.3936 681.688 34.9561C681.688 34.792 681.638 34.6598 681.537 34.5596C681.437 34.4548 681.264 34.3385 681.018 34.2109C680.772 34.0788 680.444 33.9261 680.034 33.7529C679.446 33.5068 679.013 33.279 678.735 33.0693C678.461 32.8597 678.261 32.6204 678.133 32.3516C678.01 32.0781 677.949 31.7432 677.949 31.3467C677.949 30.6676 678.211 30.1436 678.735 29.7744C679.263 29.4007 680.011 29.2139 680.977 29.2139C681.898 29.2139 682.793 29.4144 683.663 29.8154L683.035 31.3193C682.652 31.1553 682.294 31.0208 681.961 30.916C681.629 30.8112 681.289 30.7588 680.943 30.7588C680.328 30.7588 680.02 30.9251 680.02 31.2578C680.02 31.4447 680.118 31.6064 680.314 31.7432C680.514 31.8799 680.95 32.0827 681.62 32.3516C682.217 32.5931 682.654 32.8187 682.932 33.0283C683.21 33.238 683.415 33.4795 683.547 33.7529C683.679 34.0264 683.746 34.3522 683.746 34.7305ZM688.242 35.4756C688.607 35.4756 689.044 35.3958 689.555 35.2363V36.7881C689.035 37.0205 688.397 37.1367 687.641 37.1367C686.807 37.1367 686.198 36.9271 685.815 36.5078C685.437 36.084 685.248 35.4505 685.248 34.6074V30.9229H684.25V30.041L685.398 29.3438L686 27.7305H687.333V29.3574H689.473V30.9229H687.333V34.6074C687.333 34.9036 687.415 35.1224 687.579 35.2637C687.748 35.4049 687.969 35.4756 688.242 35.4756ZM690.668 27.3818C690.668 26.7028 691.046 26.3633 691.802 26.3633C692.559 26.3633 692.937 26.7028 692.937 27.3818C692.937 27.7054 692.841 27.9583 692.65 28.1406C692.463 28.3184 692.181 28.4072 691.802 28.4072C691.046 28.4072 690.668 28.0654 690.668 27.3818ZM692.841 37H690.756V29.3574H692.841V37ZM701.74 37H699.655V32.5361C699.655 31.9847 699.557 31.5723 699.362 31.2988C699.166 31.0208 698.853 30.8818 698.425 30.8818C697.842 30.8818 697.42 31.0778 697.16 31.4697C696.901 31.8571 696.771 32.502 696.771 33.4043V37H694.686V29.3574H696.279L696.559 30.335H696.675C696.907 29.9658 697.226 29.6878 697.632 29.501C698.042 29.3096 698.507 29.2139 699.027 29.2139C699.915 29.2139 700.59 29.4554 701.05 29.9385C701.51 30.417 701.74 31.1097 701.74 32.0166V37ZM710.188 29.3574V30.417L708.992 30.7246C709.211 31.0664 709.32 31.4492 709.32 31.873C709.32 32.6934 709.033 33.3337 708.459 33.7939C707.889 34.2497 707.096 34.4775 706.08 34.4775L705.704 34.457L705.396 34.4229C705.182 34.5869 705.075 34.7692 705.075 34.9697C705.075 35.2705 705.458 35.4209 706.223 35.4209H707.522C708.361 35.4209 708.999 35.6009 709.436 35.9609C709.878 36.321 710.099 36.8496 710.099 37.5469C710.099 38.4401 709.726 39.1328 708.978 39.625C708.235 40.1172 707.167 40.3633 705.772 40.3633C704.706 40.3633 703.89 40.1764 703.325 39.8027C702.764 39.4336 702.484 38.9141 702.484 38.2441C702.484 37.7839 702.628 37.3988 702.915 37.0889C703.202 36.779 703.623 36.5579 704.179 36.4258C703.965 36.3346 703.778 36.1865 703.619 35.9814C703.459 35.7718 703.38 35.5508 703.38 35.3184C703.38 35.0267 703.464 34.7852 703.633 34.5938C703.801 34.3978 704.045 34.2064 704.364 34.0195C703.963 33.8464 703.644 33.5684 703.407 33.1855C703.175 32.8027 703.058 32.3516 703.058 31.832C703.058 30.998 703.33 30.3532 703.872 29.8975C704.414 29.4417 705.189 29.2139 706.196 29.2139C706.41 29.2139 706.663 29.2344 706.955 29.2754C707.251 29.3118 707.44 29.3392 707.522 29.3574H710.188ZM704.289 38.0801C704.289 38.3672 704.426 38.5928 704.699 38.7568C704.977 38.9209 705.364 39.0029 705.861 39.0029C706.609 39.0029 707.194 38.9004 707.618 38.6953C708.042 38.4902 708.254 38.21 708.254 37.8545C708.254 37.5674 708.128 37.3691 707.878 37.2598C707.627 37.1504 707.24 37.0957 706.716 37.0957H705.636C705.253 37.0957 704.931 37.1846 704.672 37.3623C704.416 37.5446 704.289 37.7839 704.289 38.0801ZM705.048 31.8594C705.048 32.2741 705.141 32.6022 705.328 32.8438C705.519 33.0853 705.809 33.2061 706.196 33.2061C706.588 33.2061 706.875 33.0853 707.057 32.8438C707.24 32.6022 707.331 32.2741 707.331 31.8594C707.331 30.9388 706.953 30.4785 706.196 30.4785C705.43 30.4785 705.048 30.9388 705.048 31.8594Z" fill="#B8B8B8"/>
<path fill-rule="evenodd" clip-rule="evenodd" d="M757.799 22.6574L755.836 20.5244C755.707 20.3964 755.531 20.3247 755.349 20.3247C755.167 20.3247 754.992 20.3964 754.862 20.5244L752.897 22.6574C752.833 22.7208 752.782 22.7963 752.747 22.8796C752.713 22.9628 752.695 23.0521 752.695 23.1423C752.695 23.2325 752.713 23.3218 752.747 23.405C752.782 23.4882 752.833 23.5637 752.897 23.6272H754.523C754.218 24.7695 753.618 25.8113 752.782 26.6473C751.947 27.4832 750.905 28.0837 749.763 28.3881C748.428 28.7373 747.018 28.6694 745.723 28.1935C744.428 27.7176 743.31 26.8566 742.518 25.7262L741.148 26.6696C742.135 28.0801 743.531 29.1544 745.147 29.7479C746.763 30.3415 748.522 30.4259 750.187 29.9897C751.685 29.5926 753.044 28.7875 754.111 27.6642C755.178 26.5409 755.913 25.1433 756.233 23.6272H757.797C757.861 23.5637 757.912 23.4883 757.947 23.4051C757.982 23.3219 758 23.2327 758 23.1425C758 23.0524 757.982 22.9631 757.948 22.8799C757.913 22.7966 757.863 22.721 757.799 22.6574Z" fill="#B8B8B8"/>
<path fill-rule="evenodd" clip-rule="evenodd" d="M743.578 21.5431C743.642 21.4797 743.693 21.4041 743.727 21.3209C743.762 21.2377 743.78 21.1484 743.78 21.0582C743.78 20.968 743.762 20.8787 743.727 20.7955C743.693 20.7123 743.642 20.6368 743.578 20.5733H741.747C742.059 19.4454 742.66 18.4186 743.491 17.5949C744.322 16.7712 745.354 16.1792 746.484 15.8777C747.819 15.5281 749.229 15.5961 750.524 16.0725C751.819 16.5489 752.937 17.4108 753.728 18.5421L755.099 17.5974C754.112 16.1862 752.716 15.1113 751.099 14.5173C749.482 13.9233 747.722 13.8386 746.056 14.2748C744.57 14.6702 743.221 15.467 742.157 16.5779C741.094 17.6889 740.357 19.0712 740.026 20.5733H738.202C738.138 20.6368 738.087 20.7123 738.053 20.7955C738.018 20.8787 738 20.968 738 21.0582C738 21.1484 738.018 21.2377 738.053 21.3209C738.087 21.4041 738.138 21.4797 738.202 21.5431L740.26 23.5995C740.39 23.7274 740.565 23.7991 740.747 23.7991C740.93 23.7991 741.105 23.7274 741.235 23.5995L743.578 21.5431Z" fill="#B8B8B8"/>
<path fill-rule="evenodd" clip-rule="evenodd" d="M549.155 221.625L558.034 207.628C558.291 207.181 558.633 206.789 559.042 206.475C559.451 206.161 559.918 205.931 560.416 205.799C560.914 205.666 561.434 205.633 561.945 205.702C562.456 205.771 562.948 205.94 563.393 206.2L565.708 214.839C574.558 214.364 583.366 216.355 591.152 220.589C598.937 224.823 605.395 231.134 609.806 238.821C612.243 243.097 613.995 247.694 615.028 252.448L605.944 255.307C605.147 251.196 603.683 247.218 601.587 243.538C598.215 237.678 593.355 232.813 587.5 229.433C581.645 226.054 575.001 224.28 568.241 224.291L570.647 233.271C570.391 233.719 570.049 234.112 569.641 234.427C569.233 234.742 568.766 234.973 568.268 235.106C567.769 235.24 567.25 235.273 566.738 235.205C566.227 235.136 565.735 234.967 565.289 234.706L550.598 227.01C549.699 226.482 549.043 225.621 548.773 224.613C548.503 223.606 548.64 222.532 549.155 221.625ZM613.057 268.406L620.739 283.093C620.997 283.539 621.165 284.032 621.233 284.543C621.3 285.054 621.266 285.574 621.132 286.071C620.998 286.569 620.767 287.035 620.452 287.444C620.137 287.852 619.744 288.193 619.296 288.449L610.657 286.134C606.643 294.036 600.516 300.668 592.956 305.294C585.396 309.92 576.701 312.356 567.839 312.333C562.918 312.305 558.061 311.525 553.428 310.043L556.288 301.01C560.009 302.204 563.911 302.833 567.864 302.857C574.624 302.866 581.268 301.091 587.122 297.71C592.976 294.328 597.834 289.462 601.205 283.601L592.225 281.195C591.965 280.75 591.796 280.257 591.727 279.746C591.658 279.235 591.692 278.715 591.825 278.217C591.959 277.719 592.19 277.252 592.505 276.844C592.82 276.435 593.213 276.093 593.661 275.838L607.671 266.963C608.579 266.448 609.652 266.311 610.66 266.581C611.667 266.851 612.528 267.506 613.057 268.406ZM546.179 279.03C546.197 278.515 546.112 278.001 545.931 277.518C545.749 277.036 545.473 276.594 545.119 276.218C544.765 275.843 544.341 275.542 543.87 275.331C543.399 275.121 542.891 275.007 542.375 274.994L534.757 282.173C531.629 276.257 530.103 269.626 530.331 262.938C530.559 256.25 532.532 249.738 536.056 244.048C538.043 240.871 540.47 238.019 543.248 235.569L536.361 229.013C533.144 231.948 530.322 235.323 527.985 239.057C523.35 246.532 520.861 255.139 520.792 263.935C520.723 272.731 523.076 281.376 527.594 288.923L520.002 296.078C519.984 296.593 520.069 297.107 520.251 297.59C520.432 298.072 520.708 298.514 521.062 298.89C521.416 299.265 521.84 299.566 522.312 299.777C522.783 299.987 523.291 300.101 523.806 300.114L540.436 300.602C541.479 300.625 542.489 300.237 543.248 299.522C544.007 298.806 544.455 297.821 544.494 296.779L546.179 279.03Z" fill="#182028"/>
<path d="M252.788 254.152H267.333V263.849H252.788V254.152ZM160.667 254.152H175.212V263.849H160.667V254.152ZM218.848 205.667V220.212H209.151V205.667H218.848ZM179.673 217.788L190 228.164L183.115 235L172.788 224.721L179.673 217.788ZM238 228.115L248.279 217.788L255.212 224.721L244.885 235L238 228.115ZM214 229.909C221.715 229.909 229.115 232.974 234.57 238.43C240.026 243.885 243.091 251.285 243.091 259C243.091 269.764 237.224 279.17 228.545 284.212V292.939C228.545 294.225 228.034 295.459 227.125 296.368C226.216 297.277 224.983 297.788 223.697 297.788H204.303C203.017 297.788 201.784 297.277 200.874 296.368C199.965 295.459 199.454 294.225 199.454 292.939V284.212C190.776 279.17 184.909 269.764 184.909 259C184.909 251.285 187.974 243.885 193.429 238.43C198.885 232.974 206.284 229.909 214 229.909ZM223.697 302.636V307.485C223.697 308.771 223.186 310.004 222.277 310.913C221.367 311.823 220.134 312.333 218.848 312.333H209.151C207.865 312.333 206.632 311.823 205.723 310.913C204.814 310.004 204.303 308.771 204.303 307.485V302.636H223.697ZM209.151 288.091H218.848V277.764C227.236 275.63 233.394 268.018 233.394 259C233.394 253.856 231.35 248.924 227.713 245.286C224.076 241.649 219.143 239.606 214 239.606C208.856 239.606 203.923 241.649 200.286 245.286C196.649 248.924 194.606 253.856 194.606 259C194.606 268.018 200.763 275.63 209.151 277.764V288.091Z" fill="#182028"/>
<path d="M48.7807 280.628C45.1786 277.444 45.1786 271.825 48.7807 268.641L209.067 126.953C212.093 124.278 216.638 124.278 219.664 126.953L379.95 268.641C383.552 271.825 383.552 277.444 379.95 280.628L219.664 422.316C216.638 424.991 212.093 424.991 209.067 422.316L48.7807 280.628Z" stroke="#B8B8B8" stroke-width="8"/>
<path d="M402.781 280.628C399.179 277.444 399.179 271.825 402.781 268.641L563.067 126.953C566.093 124.278 570.638 124.278 573.664 126.953L733.95 268.641C737.552 271.825 737.552 277.444 733.95 280.628L573.664 422.316C570.638 424.991 566.093 424.991 563.067 422.316L402.781 280.628Z" stroke="#B8B8B8" stroke-width="8"/>
<line x1="391" y1="2" x2="391" y2="273" stroke="#B8B8B8" stroke-width="4" stroke-linecap="round" stroke-dasharray="1 12"/>
<path d="M74 463C72.8954 463 72 463.895 72 465C72 466.105 72.8954 467 74 467L74 463ZM729.414 466.414C730.195 465.633 730.195 464.367 729.414 463.586L716.686 450.858C715.905 450.077 714.639 450.077 713.858 450.858C713.077 451.639 713.077 452.905 713.858 453.686L725.172 465L713.858 476.314C713.077 477.095 713.077 478.361 713.858 479.142C714.639 479.923 715.905 479.923 716.686 479.142L729.414 466.414ZM74 467L728 467L728 463L74 463L74 467Z" fill="#D6042E"/>
<circle cx="64" cy="465" r="10" stroke="#D6042E" stroke-width="4"/>
<path fill-rule="evenodd" clip-rule="evenodd" d="M52 275C52 281.627 46.6274 287 40 287C33.3726 287 28 281.627 28 275C28 268.373 33.3726 263 40 263C46.6274 263 52 268.373 52 275ZM403 275C403 281.627 397.627 287 391 287C384.373 287 379 281.627 379 275C379 268.373 384.373 263 391 263C397.627 263 403 268.373 403 275ZM741 287C747.627 287 753 281.627 753 275C753 268.373 747.627 263 741 263C734.373 263 729 268.373 729 275C729 281.627 734.373 287 741 287Z" fill="#D6042E"/>
</svg>
