<svg width="48" height="48" viewBox="0 0 48 48" fill="none" xmlns="http://www.w3.org/2000/svg">
<path d="M14.7905 14.9362V8.51396L35.4593 18.6932L31.5743 20.6037L36.8506 23.2051L46 18.6932L10.0743 1V12.6135L7.71621 11.4522V8.85656L3 6.53385V14.3207L23.6688 24.5L17.1486 27.7111V32.9024L28.9391 27.0956L35.4593 30.3068L14.7905 40.486V22.7231L10.0743 20.4004V31.1952L7.71621 32.3566V19.2391L3 16.9164V39.8705L10.0743 36.3865V48L46 30.3068L14.7905 14.9362Z" fill="#182028"/>
<path d="M10.0743 12.6135L14.7905 14.9362V12.3406L10.0743 10.0179V12.6135Z" fill="black"/>
<path d="M21.0336 25.8007L26.3039 28.3963L28.9391 27.0956L23.6687 24.5L21.0336 25.8007Z" fill="black"/>
<path d="M7.71619 37.5478L10.0743 36.3864V31.1952L7.71619 32.3565V37.5478Z" fill="black"/>
</svg>
