<svg xmlns="http://www.w3.org/2000/svg" viewBox="0 0 144 48"><defs><style>.cls-1{fill:#262a26;}.cls-2{fill:#43495f;}</style></defs><g id="Layer_2" data-name="Layer 2"><g id="Layer_1-2" data-name="Layer 1"><path class="cls-1" d="M0,0V48H48V0ZM9.15,10.58h7v1h-3V20H12.13V11.54h-3Zm8.51,25.16H16.41l-5.13-7.88h0c.07.93.11,1.78.11,2.55v5.33h-1V26.36h1.23l5.12,7.84h.05c0-.11,0-.49-.06-1.11s0-1.08,0-1.35V26.36h1ZM21.06,20H20V10.58h1.09v4h5v-4H27.1V20H26V15.54h-5Zm7,15.78-3.42-4.55-1,.87v3.68H22.61V26.36H23.7V31L28,26.36h1.29l-3.78,4.07,3.92,5.31Zm9.34-.56a3.89,3.89,0,0,1-2.44.69,6,6,0,0,1-2.56-.43v-1a6.53,6.53,0,0,0,1.25.38,6.32,6.32,0,0,0,1.35.14,2.72,2.72,0,0,0,1.65-.41,1.36,1.36,0,0,0,.55-1.15,1.48,1.48,0,0,0-.2-.8,1.88,1.88,0,0,0-.65-.58,9.62,9.62,0,0,0-1.4-.59,4.61,4.61,0,0,1-1.87-1.11,2.49,2.49,0,0,1-.56-1.68,2.1,2.1,0,0,1,.81-1.73,3.47,3.47,0,0,1,2.16-.64,6.46,6.46,0,0,1,2.58.51l-.34.95a5.93,5.93,0,0,0-2.26-.48,2.2,2.2,0,0,0-1.36.37,1.24,1.24,0,0,0-.49,1,1.55,1.55,0,0,0,.18.8,1.61,1.61,0,0,0,.61.57,6.83,6.83,0,0,0,1.31.58,5.21,5.21,0,0,1,2,1.13,2.2,2.2,0,0,1,.55,1.56A2.31,2.31,0,0,1,37.44,35.18ZM37.94,20l-1.17-3H33l-1.16,3h-1.1l3.71-9.42h.92L39.07,20Z"/><path class="cls-1" d="M34.9,11.73a13,13,0,0,1-.4,1.36L33.39,16h3l-1.09-2.9C35.2,12.72,35.05,12.27,34.9,11.73Z"/><path class="cls-2" d="M92.47,27.84H91.41V34h.86c1.92,0,2.88-1,2.88-3.08S94.25,27.84,92.47,27.84Z"/><path class="cls-2" d="M81.34,27.63c-.14.55-.54,1.9-1.21,4.06h2.44c-.62-2-1-3.17-1.06-3.43S81.38,27.78,81.34,27.63Z"/><path class="cls-2" d="M83.64,12.34a2.89,2.89,0,0,0-1.42-.28h-.61V14.6h.64a2.47,2.47,0,0,0,1.4-.32,1.12,1.12,0,0,0,.45-1A1,1,0,0,0,83.64,12.34Z"/><path class="cls-2" d="M61.22,28.12a2.89,2.89,0,0,0-1.42-.28h-.61v2.54h.65a2.44,2.44,0,0,0,1.39-.32,1.12,1.12,0,0,0,.45-1A1,1,0,0,0,61.22,28.12Z"/><path class="cls-2" d="M70.85,11.94a2.08,2.08,0,0,0-1.79.8,3.91,3.91,0,0,0-.6,2.37,4,4,0,0,0,.59,2.37,2.11,2.11,0,0,0,1.79.8c1.59,0,2.38-1.06,2.38-3.17S72.43,11.94,70.85,11.94Z"/><path class="cls-2" d="M48,0V48h96V0Zm9.2,10.43h5.38v1.63H59.16v2.42h3.19v1.63H59.16v3.71h-2ZM62.49,35.6,60.25,32H59.19V35.6h-2V26.21h2.74a4.64,4.64,0,0,1,2.83.7A2.48,2.48,0,0,1,63.69,29a2.45,2.45,0,0,1-.46,1.48,3,3,0,0,1-1.29,1c1.41,2.11,2.34,3.47,2.76,4.09Zm11.17-7.76H70.24V29.9h3.18v1.63H70.24V34h3.42V35.6H68.25V26.21h5.41Zm.49-9.15a5,5,0,0,1-6.62,0,5.1,5.1,0,0,1-1.16-3.59,5.05,5.05,0,0,1,1.16-3.58,5,5,0,0,1,6.63,0,5.07,5.07,0,0,1,1.15,3.58A5.09,5.09,0,0,1,74.15,18.69ZM83.73,35.6l-.68-2.24H79.63L79,35.6H76.8l3.32-9.43h2.43l3.33,9.43Zm1.18-15.78-2.24-3.61H81.61v3.61h-2V10.43h2.74a4.64,4.64,0,0,1,2.83.7,2.48,2.48,0,0,1,.92,2.11,2.55,2.55,0,0,1-.46,1.48,3,3,0,0,1-1.29,1q2.11,3.16,2.76,4.09Zm11,14.55a5.39,5.39,0,0,1-3.81,1.23H89.42V26.21h3a5,5,0,0,1,3.57,1.21,4.46,4.46,0,0,1,1.27,3.39A4.65,4.65,0,0,1,95.89,34.37Zm7.63,1.23h-2V26.21h2Zm13,0H114L110,28.5h-.06c.08,1.25.12,2.15.12,2.68V35.6h-1.77V26.21h2.51l4.07,7h0c-.07-1.22-.1-2.08-.1-2.59V26.21h1.79Zm12-.41a10.25,10.25,0,0,1-1.7.42,11.11,11.11,0,0,1-1.64.12A4.12,4.12,0,0,1,122,34.48a5.2,5.2,0,0,1-1.12-3.59,4.7,4.7,0,0,1,1.3-3.54,4.9,4.9,0,0,1,3.6-1.27,7.11,7.11,0,0,1,2.79.57l-.66,1.6a4.66,4.66,0,0,0-2.14-.52,2.64,2.64,0,0,0-2.07.87,3.35,3.35,0,0,0-.78,2.33,3.7,3.7,0,0,0,.63,2.33,2.16,2.16,0,0,0,1.82.81,6.15,6.15,0,0,0,1.27-.13V32h-1.78V30.33h3.72Zm6.12.29a1.34,1.34,0,0,1-1.65,0,1.08,1.08,0,0,1-.3-.81,1.11,1.11,0,0,1,.29-.82,1.18,1.18,0,0,1,.84-.27,1.14,1.14,0,0,1,.83.28,1.1,1.1,0,0,1,.29.81A1.07,1.07,0,0,1,134.71,35.48Zm0-3h-1.57l-.32-6.27H135Z"/></g></g></svg>