<svg width="24" height="24" viewBox="0 0 24 24" fill="none" xmlns="http://www.w3.org/2000/svg">
<path d="M13 21V5.41244L17.88 10.2924C18.27 10.6824 18.91 10.6824 19.3 10.2924C19.3927 10.1999 19.4662 10.09 19.5164 9.96907C19.5666 9.8481 19.5924 9.71841 19.5924 9.58744C19.5924 9.45648 19.5666 9.32679 19.5164 9.20582C19.4662 9.08485 19.3927 8.97496 19.3 8.88244L12.71 2.29244C12.6175 2.19974 12.5076 2.12619 12.3866 2.07601C12.2656 2.02583 12.136 2 12.005 2C11.874 2 11.7443 2.02583 11.6234 2.07601C11.5024 2.12619 11.3925 2.19974 11.3 2.29244L4.70999 8.88244C4.61741 8.97503 4.54397 9.08494 4.49387 9.2059C4.44376 9.32687 4.41797 9.45651 4.41797 9.58744C4.41797 9.71837 4.44376 9.84802 4.49387 9.96899C4.54397 10.09 4.61741 10.1999 4.70999 10.2924C4.80258 10.385 4.91249 10.4585 5.03345 10.5086C5.15442 10.5587 5.28406 10.5845 5.415 10.5845C5.54593 10.5845 5.67557 10.5587 5.79654 10.5086C5.9175 10.4585 6.02741 10.385 6.12 10.2924L11 5.41244L11 21C11 21.55 11.45 22 12 22C12.55 22 13 21.55 13 21Z" fill="#182028"/>
</svg>
